<svg width="61" height="60" fill="none" xmlns="http://www.w3.org/2000/svg"><g clip-path="url(#a)"><path d="M53 15H13a7.528 7.528 0 0 1-5.588-2.498A7.486 7.486 0 0 1 13 10h45a2.5 2.5 0 0 0 0-5H13A12.5 12.5 0 0 0 .5 17.5v25A12.5 12.5 0 0 0 13 55h40a7.5 7.5 0 0 0 7.5-7.5v-25A7.5 7.5 0 0 0 53 15Zm2.5 32.5c0 1.377-1.12 2.5-2.5 2.5H13c-4.135 0-7.5-3.365-7.5-7.5V17.495A12.53 12.53 0 0 0 13 20h40c1.38 0 2.5 1.122 2.5 2.5v25Zm-5-12.5a2.5 2.5 0 1 1-5 0 2.5 2.5 0 0 1 5 0Z" fill="#1D1D1D"/></g><defs><clipPath id="a"><path fill="#fff" transform="translate(.5)" d="M0 0h60v60H0z"/></clipPath></defs></svg>