<svg width="61" height="60" fill="none" xmlns="http://www.w3.org/2000/svg"><g clip-path="url(#a)"><g clip-path="url(#b)"><path d="m49.337 7.805-4.14-4.145A12.42 12.42 0 0 0 36.358 0H20.5A12.515 12.515 0 0 0 8 12.5v35A12.515 12.515 0 0 0 20.5 60h20A12.515 12.515 0 0 0 53 47.5V16.643a12.422 12.422 0 0 0-3.663-8.838Zm-3.535 3.535c.355.353.673.742.948 1.16H40.5V6.25a7.75 7.75 0 0 1 1.163.95l4.14 4.14ZM48 47.5a7.5 7.5 0 0 1-7.5 7.5h-20a7.5 7.5 0 0 1-7.5-7.5v-35A7.5 7.5 0 0 1 20.5 5h15v7.5a5 5 0 0 0 5 5H48v30Zm-7.5-25a2.5 2.5 0 1 1 0 5h-20a2.5 2.5 0 0 1 0-5h20ZM43 35a2.5 2.5 0 0 1-2.5 2.5h-20a2.5 2.5 0 0 1 0-5h20A2.5 2.5 0 0 1 43 35Zm-.48 8.533a2.5 2.5 0 0 1-.543 3.485A16.16 16.16 0 0 1 33.337 50a8.13 8.13 0 0 1-5-1.75c-.82-.562-1.132-.75-1.75-.75a9.877 9.877 0 0 0-4.58 1.985 2.5 2.5 0 0 1-3.035-3.97 14.651 14.651 0 0 1 7.625-3.015 7.563 7.563 0 0 1 4.58 1.638c.595.535 1.36.84 2.16.862a11.466 11.466 0 0 0 5.693-2.022 2.5 2.5 0 0 1 3.49.555Z" fill="#1D1D1D"/></g></g><defs><clipPath id="a"><path fill="#fff" transform="translate(.5)" d="M0 0h60v60H0z"/></clipPath><clipPath id="b"><path fill="#fff" transform="translate(.5)" d="M0 0h60v60H0z"/></clipPath></defs></svg>