<svg width="61" height="60" viewBox="0 0 61 60" fill="none" xmlns="http://www.w3.org/2000/svg">
<g clip-path="url(#clip0_1013_1552)">
<path d="M53 15H13C11.9457 14.9981 10.9036 14.7748 9.94107 14.3445C8.97855 13.9143 8.11711 13.2868 7.4125 12.5025C8.11495 11.7152 8.97586 11.0853 9.93879 10.6541C10.9017 10.2228 11.9449 9.9999 13 10H58C58.663 10 59.2989 9.73661 59.7678 9.26777C60.2366 8.79893 60.5 8.16304 60.5 7.5C60.5 6.83696 60.2366 6.20107 59.7678 5.73223C59.2989 5.26339 58.663 5 58 5H13C9.68479 5 6.50537 6.31696 4.16117 8.66116C1.81696 11.0054 0.5 14.1848 0.5 17.5L0.5 42.5C0.5 45.8152 1.81696 48.9946 4.16117 51.3388C6.50537 53.683 9.68479 55 13 55H53C54.9891 55 56.8968 54.2098 58.3033 52.8033C59.7098 51.3968 60.5 49.4891 60.5 47.5V22.5C60.5 20.5109 59.7098 18.6032 58.3033 17.1967C56.8968 15.7902 54.9891 15 53 15ZM55.5 47.5C55.5 48.8775 54.38 50 53 50H13C8.865 50 5.5 46.635 5.5 42.5V17.495C7.66409 19.1176 10.2952 19.9964 13 20H53C54.38 20 55.5 21.1225 55.5 22.5V47.5ZM50.5 35C50.5 35.663 50.2366 36.2989 49.7678 36.7678C49.2989 37.2366 48.663 37.5 48 37.5C47.337 37.5 46.7011 37.2366 46.2322 36.7678C45.7634 36.2989 45.5 35.663 45.5 35C45.5 34.337 45.7634 33.7011 46.2322 33.2322C46.7011 32.7634 47.337 32.5 48 32.5C48.663 32.5 49.2989 32.7634 49.7678 33.2322C50.2366 33.7011 50.5 34.337 50.5 35Z" fill="#1D1D1D"/>
</g>
<defs>
<clipPath id="clip0_1013_1552">
<rect width="60" height="60" fill="white" transform="translate(0.5)"/>
</clipPath>
</defs>
</svg>
