<svg width="61" height="60" viewBox="0 0 61 60" fill="none" xmlns="http://www.w3.org/2000/svg">
<g clip-path="url(#clip0_1013_2969)">
<g clip-path="url(#clip1_1013_2969)">
<path d="M12.2188 44.0625C13.5132 44.0625 14.5625 43.0132 14.5625 41.7188C14.5625 40.4243 13.5132 39.375 12.2188 39.375C10.9243 39.375 9.875 40.4243 9.875 41.7188C9.875 43.0132 10.9243 44.0625 12.2188 44.0625Z" fill="#1D1D1D"/>
<path d="M48 7.5H13C9.68601 7.50397 6.50889 8.8222 4.16555 11.1655C1.8222 13.5089 0.50397 16.686 0.5 20L0.5 40C0.50397 43.314 1.8222 46.4911 4.16555 48.8345C6.50889 51.1778 9.68601 52.496 13 52.5H48C51.314 52.496 54.4911 51.1778 56.8345 48.8345C59.1778 46.4911 60.496 43.314 60.5 40V20C60.496 16.686 59.1778 13.5089 56.8345 11.1655C54.4911 8.8222 51.314 7.50397 48 7.5ZM13 12.5H48C49.9891 12.5 51.8968 13.2902 53.3033 14.6967C54.7098 16.1032 55.5 18.0109 55.5 20H5.5C5.5 18.0109 6.29018 16.1032 7.6967 14.6967C9.10322 13.2902 11.0109 12.5 13 12.5ZM48 47.5H13C11.0109 47.5 9.10322 46.7098 7.6967 45.3033C6.29018 43.8968 5.5 41.9891 5.5 40V25H55.5V40C55.5 41.9891 54.7098 43.8968 53.3033 45.3033C51.8968 46.7098 49.9891 47.5 48 47.5Z" fill="#1D1D1D"/>
</g>
</g>
<defs>
<clipPath id="clip0_1013_2969">
<rect width="60" height="60" fill="white" transform="translate(0.5)"/>
</clipPath>
<clipPath id="clip1_1013_2969">
<rect width="60" height="60" fill="white" transform="translate(0.5)"/>
</clipPath>
</defs>
</svg>
