<svg width="61" height="60" viewBox="0 0 61 60" fill="none" xmlns="http://www.w3.org/2000/svg">
<g clip-path="url(#clip0_1013_1592)">
<g clip-path="url(#clip1_1013_1592)">
<path d="M49.3375 7.80505L45.1975 3.66005C44.0392 2.49583 42.6615 1.5729 41.1441 0.94466C39.6267 0.316423 37.9998 -0.00463998 36.3575 5.06636e-05H20.5C17.186 0.00402031 14.0089 1.32226 11.6655 3.6656C9.3222 6.00895 8.00397 9.18606 8 12.5001V47.5001C8.00397 50.814 9.3222 53.9912 11.6655 56.3345C14.0089 58.6779 17.186 59.9961 20.5 60.0001H40.5C43.814 59.9961 46.9911 58.6779 49.3345 56.3345C51.6778 53.9912 52.996 50.814 53 47.5001V16.6426C53.004 15.0005 52.6824 13.374 52.0538 11.857C51.4251 10.3401 50.5019 8.96287 49.3375 7.80505ZM45.8025 11.3401C46.1571 11.6933 46.4746 12.082 46.75 12.5001H40.5V6.25005C40.9173 6.52835 41.3067 6.84651 41.6625 7.20005L45.8025 11.3401ZM48 47.5001C48 49.4892 47.2098 51.3968 45.8033 52.8034C44.3968 54.2099 42.4891 55.0001 40.5 55.0001H20.5C18.5109 55.0001 16.6032 54.2099 15.1967 52.8034C13.7902 51.3968 13 49.4892 13 47.5001V12.5001C13 10.5109 13.7902 8.60327 15.1967 7.19675C16.6032 5.79023 18.5109 5.00005 20.5 5.00005H35.5V12.5001C35.5 13.8261 36.0268 15.0979 36.9645 16.0356C37.9021 16.9733 39.1739 17.5001 40.5 17.5001H48V47.5001ZM40.5 22.5001C41.163 22.5001 41.7989 22.7634 42.2678 23.2323C42.7366 23.7011 43 24.337 43 25.0001C43 25.6631 42.7366 26.299 42.2678 26.7678C41.7989 27.2367 41.163 27.5001 40.5 27.5001H20.5C19.837 27.5001 19.2011 27.2367 18.7322 26.7678C18.2634 26.299 18 25.6631 18 25.0001C18 24.337 18.2634 23.7011 18.7322 23.2323C19.2011 22.7634 19.837 22.5001 20.5 22.5001H40.5ZM43 35.0001C43 35.6631 42.7366 36.299 42.2678 36.7678C41.7989 37.2367 41.163 37.5001 40.5 37.5001H20.5C19.837 37.5001 19.2011 37.2367 18.7322 36.7678C18.2634 36.299 18 35.6631 18 35.0001C18 34.337 18.2634 33.7011 18.7322 33.2323C19.2011 32.7634 19.837 32.5001 20.5 32.5001H40.5C41.163 32.5001 41.7989 32.7634 42.2678 33.2323C42.7366 33.7011 43 34.337 43 35.0001ZM42.52 43.5326C42.9086 44.0672 43.0697 44.7339 42.968 45.387C42.8664 46.0401 42.5102 46.6264 41.9775 47.0176C39.4445 48.8225 36.4445 49.8581 33.3375 50.0001C31.5222 49.9913 29.7621 49.3752 28.3375 48.2501C27.5175 47.6876 27.205 47.5001 26.5875 47.5001C24.9161 47.7587 23.339 48.4422 22.0075 49.4851C21.4794 49.8615 20.8256 50.018 20.1842 49.9215C19.5429 49.825 18.9641 49.483 18.5702 48.9677C18.1763 48.4524 17.9981 47.8043 18.0731 47.16C18.1482 46.5158 18.4707 45.926 18.9725 45.5151C21.1754 43.8049 23.8207 42.7589 26.5975 42.5001C28.2628 42.5267 29.8728 43.1023 31.1775 44.1376C31.7722 44.6725 32.5379 44.9782 33.3375 45.0001C35.3817 44.8469 37.3474 44.1485 39.03 42.9776C39.5665 42.5887 40.2355 42.4287 40.8899 42.5327C41.5443 42.6368 42.1306 42.9964 42.52 43.5326Z" fill="#1D1D1D"/>
</g>
</g>
<defs>
<clipPath id="clip0_1013_1592">
<rect width="60" height="60" fill="white" transform="translate(0.5)"/>
</clipPath>
<clipPath id="clip1_1013_1592">
<rect width="60" height="60" fill="white" transform="translate(0.5)"/>
</clipPath>
</defs>
</svg>
