<svg width="175" height="175" fill="none" xmlns="http://www.w3.org/2000/svg"><path d="M80.86 5.67c1.065-7.56 11.828-7.56 12.893 0l4.971 35.286c.736 5.225 6.918 7.507 10.793 3.984l26.173-23.79c5.607-5.097 13.852 1.92 9.876 8.406l-18.555 30.271c-2.748 4.482.542 10.26 5.742 10.088l35.128-1.162c7.526-.249 9.395 10.501 2.238 12.878l-33.4 11.093c-4.945 1.642-6.088 8.212-1.995 11.471l27.646 22.01c5.923 4.715.542 14.168-6.447 11.324l-32.617-13.277c-4.829-1.965-9.868 2.323-8.798 7.488l7.228 34.882c1.549 7.474-8.565 11.208-12.116 4.473l-16.57-31.434c-2.454-4.654-9.033-4.654-11.486 0l-16.572 31.434c-3.55 6.735-13.664 3.001-12.115-4.473l7.228-34.882c1.07-5.165-3.97-9.453-8.799-7.488L18.69 137.529c-6.988 2.844-12.37-6.609-6.446-11.324l27.645-22.01c4.093-3.259 2.951-9.83-1.994-11.471L4.494 81.63c-7.157-2.377-5.288-13.127 2.238-12.878l35.127 1.162c5.201.172 8.49-5.606 5.743-10.088l-18.556-30.27c-3.976-6.486 4.27-13.503 9.877-8.405l26.172 23.79c3.875 3.522 10.057 1.24 10.793-3.985L80.86 5.67Z" fill="#F4996B"/></svg>