<svg width="237" height="236" fill="none" xmlns="http://www.w3.org/2000/svg"><path d="M109.49 7.664c1.44-10.219 15.986-10.219 17.426 0l6.719 47.691c.995 7.061 9.35 10.145 14.588 5.385l35.373-32.154c7.579-6.889 18.723 2.594 13.349 11.36l-25.079 40.915c-3.713 6.057.732 13.867 7.762 13.634l47.476-1.57c10.173-.337 12.699 14.192 3.026 17.404l-45.143 14.993c-6.684 2.219-8.227 11.1-2.695 15.504l37.364 29.747c8.006 6.374.733 19.151-8.713 15.306l-44.084-17.944c-6.526-2.657-13.338 3.139-11.891 10.12l9.769 47.146c2.093 10.101-11.576 15.147-16.375 6.044l-22.397-42.484c-3.316-6.291-12.208-6.291-15.524 0l-22.397 42.484c-4.799 9.103-18.468 4.057-16.375-6.044l9.77-47.146c1.446-6.981-5.365-12.777-11.892-10.12l-44.084 17.944c-9.445 3.845-16.719-8.932-8.713-15.305l37.365-29.748c5.532-4.404 3.988-13.285-2.696-15.504L6.276 110.329c-9.672-3.212-7.146-17.741 3.026-17.405l47.477 1.571c7.029.233 11.474-7.577 7.761-13.634L39.46 39.946c-5.373-8.766 5.77-18.249 13.35-11.36L88.184 60.74c5.237 4.76 13.592 1.676 14.587-5.385l6.719-47.691Z" fill="#F4996B"/></svg>