<svg width="102" height="24" fill="none" xmlns="http://www.w3.org/2000/svg"><path d="M5.648 18.648h10.816V23H.24V1.304h5.408v17.344Zm26.072 4.8c-7.712 0-13.952-5.024-13.952-11.424 0-6.4 6.208-11.52 13.984-11.52 7.68 0 13.92 4.96 13.92 11.456 0 6.464-6.208 11.488-13.952 11.488Zm-7.936-11.296c0 4.736 3.744 7.136 7.872 7.136 4.224 0 8.032-2.496 8.032-7.392 0-4.576-3.328-7.136-7.68-7.168-4.608-.032-8.224 2.72-8.224 7.424Zm23.39-.288c0-6.368 5.632-11.488 13.408-11.488 4.32 0 8.128 1.76 10.56 4.48l-5.024 2.912c-1.344-1.44-3.424-2.4-5.664-2.4-4.096 0-7.424 2.912-7.424 6.496 0 4.096 3.008 6.528 7.072 6.528 1.856 0 4.576-.864 5.92-2.368v-2.208H57.83v-3.168h13.248v12.544h-3.904V20.92c-2.048 1.44-4.576 2.496-7.072 2.496-7.968 0-12.928-5.152-12.928-11.552ZM87.44 23.448c-7.712 0-13.952-5.024-13.952-11.424 0-6.4 6.208-11.52 13.984-11.52 7.68 0 13.92 4.96 13.92 11.456 0 6.464-6.208 11.488-13.952 11.488Zm-7.936-11.296c0 4.736 3.744 7.136 7.872 7.136 4.224 0 8.032-2.496 8.032-7.392 0-4.576-3.328-7.136-7.68-7.168-4.608-.032-8.224 2.72-8.224 7.424Z" fill="#FF361F"/></svg>