<svg width="100" height="59" fill="none" xmlns="http://www.w3.org/2000/svg"><path d="M6.718.403h15.02c3.678 0 6.7 1.311 9.067 3.933 2.33 2.549 3.205 5.99 2.622 10.323-.619 4.042-2.349 7.246-5.189 9.613-2.876 2.367-6.554 3.55-11.033 3.55h-4.37l-1.911 10.815H0L6.718.403Zm15.894 13.71c.183-.947 0-1.693-.546-2.24-.546-.582-1.274-.873-2.184-.873h-4.097l-1.092 6.226h4.37a3.47 3.47 0 0 0 2.293-.82c.692-.582 1.11-1.346 1.256-2.293Z" fill="#FF752F"/><path d="M62.013 14.386c-.838 4.697-3.387 8.12-7.647 10.268l4.916 13.983H48.358L44.425 26.62H40.93L38.8 38.637H27.875L34.648.403h15.294c3.969 0 7.155 1.33 9.558 3.988 2.403 2.621 3.24 5.953 2.513 9.995Zm-13.874-3.933h-4.37l-1.255 7.1h4.478c1.056.037 1.948-.254 2.677-.873.764-.62 1.238-1.493 1.42-2.622.182-1.129 0-2.002-.547-2.622-.51-.655-1.31-.983-2.403-.983Z" fill="#FF752F"/><path d="M76.848 40.385c-4.114 0-7.665-1.02-10.65-3.059-2.877-2.039-4.916-4.606-6.118-7.701-1.165-3.095-1.475-6.39-.928-9.886.873-5.28 3.368-9.814 7.483-13.6C70.785 2.314 75.883.402 81.928.402c3.059 0 5.826.583 8.302 1.748 2.513 1.13 4.497 2.695 5.954 4.698 3.022 4.114 4.114 8.775 3.277 13.982-.838 5.316-3.296 9.904-7.374 13.764-4.005 3.86-9.085 5.79-15.239 5.79Zm-5.407-13.327c1.456 1.747 3.532 2.621 6.227 2.621 2.694 0 5.08-.873 7.155-2.621 2.075-1.785 3.35-4.006 3.823-6.664.474-2.658-.018-4.861-1.475-6.609-1.456-1.784-3.532-2.676-6.226-2.676-2.731 0-5.116.892-7.155 2.676-2.076 1.748-3.35 3.951-3.824 6.61-.473 2.657.019 4.878 1.475 6.663Z" fill="#FF752F"/><path fill="#1D1D1D" d="M0 43.226h99.733v14.997H0z"/><path d="M10.201 47.553 8.08 51.328l1.372 4.045h-2.24l-.926-3.74-.41 3.74H3.8l.961-7.82h2.075l-.469 3.494 1.642-3.494H10.2Zm9.957 0-.235 1.84h-1.782l-.14 1.138h1.606l-.223 1.77h-1.595l-.152 1.196h1.782l-.223 1.876h-3.869l.962-7.82h3.869Zm5.197 7.82.961-7.82h1.993l-.27 2.169a14.858 14.858 0 0 1-.55 2.638c.351-.821.71-1.583 1.078-2.287l1.349-2.52h1.852l-.961 7.82h-1.993l.257-2.087c.094-.797.239-1.634.434-2.51-.21.618-.55 1.36-1.02 2.228l-1.278 2.369h-1.852Zm4.678-10.247 1.465.434c-.133.523-.414.91-.844 1.16-.352.211-.824.317-1.418.317-.587 0-1.048-.102-1.384-.305a1.855 1.855 0 0 1-.856-1.16l1.49-.446c.03.203.109.363.234.48.133.118.316.176.55.176.235 0 .419-.066.552-.199a.917.917 0 0 0 .21-.457Zm11.919 2.427-.234 1.876h-1.15l-.726 5.944h-2.075l.727-5.944h-1.15l.235-1.876h4.373Zm9.731 0-.234 1.84h-1.783l-.14 1.138h1.606l-.223 1.77h-1.594l-.153 1.196h1.782l-.222 1.876h-3.87l.962-7.82h3.869Zm6.159 0h2.016c1.86 0 2.79.754 2.79 2.263 0 .898-.285 1.64-.855 2.227-.594.602-1.435.856-2.521.762l-.317 2.568H56.88l.962-7.82Zm1.653 3.505h.105c.282 0 .504-.097.669-.293a1.09 1.09 0 0 0 .257-.727c0-.226-.058-.41-.176-.55-.109-.15-.273-.224-.492-.224h-.152l-.211 1.794Zm8.5 4.315.962-7.82h1.993l-.27 2.169c-.11.922-.293 1.801-.55 2.638.351-.821.71-1.583 1.078-2.287l1.348-2.52h1.853l-.962 7.82h-1.993l.258-2.087c.094-.797.238-1.634.434-2.51-.211.618-.551 1.36-1.02 2.228l-1.278 2.369h-1.853Zm17.911-7.82-.961 7.82h-2.076l.387-3.142h-.996l-.387 3.142h-2.075l.961-7.82h2.075l-.34 2.767h.997l.34-2.767h2.075Zm10.027 0-.222 1.84h-1.595l-.739 5.98h-2.075l.962-7.82h3.67Z" fill="#fff"/></svg>