<svg width="193" height="80" fill="none" xmlns="http://www.w3.org/2000/svg"><g filter="url(#a)"><rect width="26.828" height="26.828" rx="3" transform="rotate(-44.909 110.48 -144.147)" fill="#fff"/></g><ellipse cx="153.043" cy="35.942" rx="10.881" ry="10.847" fill="#1C202A"/><rect x="146.241" y="29.16" width="13.698" height="13.655" rx="3" fill="#fff"/><ellipse cx="153.024" cy="35.922" rx="4.742" ry="4.726" fill="#1C202A"/><rect width="3.07" height="3.07" rx="1" transform="rotate(-44.912 118.979 -164.704)" fill="#fff"/><path d="M3.96 52.96H1.746v-12.6c.264 0 .942-.005 2.034-.017l1.8-.018c3.048 0 4.572 1.296 4.572 3.888 0 .972-.246 1.764-.738 2.376-.492.6-1.056 1.008-1.692 1.224l3.942 5.148H8.982l-3.474-4.716H3.96v4.716Zm1.512-10.565c-.216 0-.72.012-1.512.036v3.744H5.4c.684 0 1.254-.168 1.71-.504.468-.348.702-.828.702-1.44 0-1.224-.78-1.836-2.34-1.836Zm13.143 8.298.594 1.458c-.792.672-1.824 1.008-3.096 1.008-1.308 0-2.364-.39-3.168-1.17-.792-.78-1.188-1.806-1.188-3.078 0-1.212.39-2.22 1.17-3.024.78-.816 1.818-1.224 3.114-1.224 1.068 0 1.974.354 2.718 1.062.744.696 1.116 1.596 1.116 2.7 0 .456-.042.828-.126 1.116H13.9c.084.6.348 1.068.792 1.404.444.324.99.486 1.638.486.912 0 1.674-.246 2.286-.738Zm-2.664-4.302c-1.176 0-1.884.588-2.124 1.764h3.978c.012-.504-.15-.924-.486-1.26-.336-.336-.792-.504-1.368-.504Zm11.245 10.17v-4.014c-.636.408-1.302.612-1.998.612-1.284 0-2.31-.384-3.078-1.152-.756-.78-1.134-1.812-1.134-3.096 0-1.2.438-2.208 1.314-3.024.876-.816 1.986-1.224 3.33-1.224 1.392 0 2.604.324 3.636.972V56.56h-2.07Zm-1.728-5.328c.696 0 1.272-.246 1.728-.738v-3.492c-.552-.264-1.08-.396-1.584-.396-.756 0-1.35.234-1.782.702-.42.456-.63 1.02-.63 1.692 0 .648.204 1.182.612 1.602.42.42.972.63 1.656.63ZM38.87 44.86v8.1H36.8v-.99c-.648.792-1.512 1.188-2.592 1.188-.84 0-1.524-.282-2.052-.846-.528-.564-.792-1.398-.792-2.502v-4.95h2.07v4.518c0 1.236.516 1.854 1.548 1.854.708 0 1.314-.33 1.818-.99V44.86h2.07Zm8.66 5.832.594 1.458c-.792.672-1.824 1.008-3.096 1.008-1.308 0-2.364-.39-3.168-1.17-.792-.78-1.188-1.806-1.188-3.078 0-1.212.39-2.22 1.17-3.024.78-.816 1.818-1.224 3.114-1.224 1.068 0 1.974.354 2.718 1.062.744.696 1.116 1.596 1.116 2.7 0 .456-.042.828-.126 1.116h-5.85c.084.6.348 1.068.792 1.404.444.324.99.486 1.638.486.912 0 1.674-.246 2.286-.738Zm-2.664-4.302c-1.176 0-1.884.588-2.124 1.764h3.978c.012-.504-.15-.924-.486-1.26-.336-.336-.792-.504-1.368-.504Zm9.39 4.842a.628.628 0 0 0 .306-.558c0-.24-.15-.432-.45-.576a5.042 5.042 0 0 0-1.098-.396c-.42-.12-.846-.258-1.278-.414a2.666 2.666 0 0 1-1.098-.792c-.3-.36-.45-.816-.45-1.368 0-.768.276-1.368.828-1.8.564-.444 1.278-.666 2.142-.666 1.32 0 2.346.342 3.078 1.026l-.774 1.476c-.66-.516-1.392-.774-2.196-.774-.3 0-.546.072-.738.216-.18.132-.27.294-.27.486 0 .24.15.438.45.594.3.156.66.288 1.08.396.432.108.864.24 1.296.396.432.156.798.414 1.098.774.3.348.45.786.45 1.314 0 .792-.3 1.422-.9 1.89-.588.468-1.38.702-2.376.702-.696 0-1.386-.15-2.07-.45-.672-.3-1.11-.612-1.314-.936l1.008-1.35c.24.264.618.498 1.134.702.516.204.978.306 1.386.306.312 0 .564-.066.756-.198Zm4.02-1.35V42.61h2.07v2.25h2.61v1.944h-2.61v2.952c0 .972.324 1.458.972 1.458.408 0 .822-.156 1.242-.468l.63 1.602c-.648.528-1.446.792-2.394.792-.888 0-1.53-.27-1.926-.81-.396-.552-.594-1.368-.594-2.448Zm11.22 3.078v-11.9h.186c.272 0 .726-.006 1.36-.017a44.623 44.623 0 0 1 1.496-.034c1.156 0 2.17.159 3.043.476.873.306 1.57.737 2.091 1.292a5.209 5.209 0 0 1 1.156 1.853c.261.68.391 1.417.391 2.21 0 1.79-.595 3.264-1.785 4.42-1.178 1.156-2.856 1.734-5.032 1.734-.283 0-.73-.006-1.343-.017a82.268 82.268 0 0 0-1.41-.017h-.154Zm3.008-11.067c-.26 0-.504.006-.73.017-.227 0-.471.006-.732.017-.249.011-.453.017-.612.017v10.132a563.3 563.3 0 0 0 2.006.034c1.848 0 3.276-.487 4.284-1.462 1.009-.986 1.513-2.255 1.513-3.808 0-1.462-.481-2.652-1.445-3.57-.963-.918-2.391-1.377-4.284-1.377Zm14.95 9.452.29.68c-.692.725-1.633 1.088-2.823 1.088-1.212 0-2.192-.363-2.94-1.088-.748-.725-1.123-1.689-1.123-2.89 0-1.156.34-2.108 1.02-2.856.692-.748 1.644-1.122 2.856-1.122.998 0 1.825.317 2.483.952.657.635.986 1.468.986 2.499 0 .272-.017.51-.051.714h-6.308c.034.918.335 1.643.901 2.176.567.521 1.31.782 2.228.782 1.053 0 1.88-.312 2.481-.935ZM84.65 45.99c-.827 0-1.49.244-1.989.73-.498.477-.787 1.1-.867 1.87h5.508c-.01-.804-.255-1.438-.73-1.903-.477-.465-1.117-.697-1.922-.697Zm9.63 4.964c0-.351-.148-.635-.442-.85a3.263 3.263 0 0 0-1.054-.51c-.408-.125-.822-.26-1.241-.408a2.699 2.699 0 0 1-1.071-.731c-.284-.329-.425-.754-.425-1.275 0-.612.226-1.1.68-1.462.453-.374 1.048-.561 1.785-.561 1.054 0 1.853.283 2.397.85l-.374.663c-.522-.487-1.19-.731-2.006-.731-.465 0-.84.119-1.122.357-.284.238-.425.527-.425.867 0 .374.141.674.425.9a3.52 3.52 0 0 0 1.054.545c.419.125.838.26 1.258.408.419.147.77.38 1.054.697.294.306.442.708.442 1.207 0 .714-.267 1.258-.8 1.632-.52.374-1.172.56-1.954.56a3.894 3.894 0 0 1-1.564-.34c-.522-.226-.873-.48-1.054-.764l.493-.578c.204.26.527.476.969.646.442.17.86.255 1.258.255.476 0 .878-.12 1.207-.357.34-.238.51-.578.51-1.02Zm3.57 2.006v-7.65h.883v7.65h-.884Zm-.154-10.625a.5.5 0 0 1 .187-.408.676.676 0 0 1 .442-.153c.147 0 .278.057.391.17a.483.483 0 0 1 .187.39.62.62 0 0 1-.17.46.556.556 0 0 1-.408.17.657.657 0 0 1-.459-.17.62.62 0 0 1-.17-.46Zm3.056 11.747c0-.59.204-1.077.612-1.462.419-.397.997-.674 1.734-.833a1.105 1.105 0 0 1-.255-.731c0-.295.096-.55.289-.765a2.598 2.598 0 0 1-1.173-.97 2.595 2.595 0 0 1-.425-1.461c0-.782.277-1.428.833-1.938.555-.51 1.286-.765 2.193-.765.725 0 1.365.193 1.921.578h.017l2.176-.578v.833l-1.547.39c.306.454.459.947.459 1.48a2.53 2.53 0 0 1-.85 1.938c-.556.51-1.281.765-2.176.765-.295 0-.55-.023-.765-.068a.964.964 0 0 0-.153.56c0 .25.073.454.221.613.317-.023.555-.034.714-.034 1.156 0 2.079.215 2.771.646.702.42 1.054 1.02 1.054 1.802 0 .77-.352 1.366-1.054 1.785-.703.42-1.627.629-2.771.629-1.156 0-2.086-.21-2.788-.63-.692-.407-1.037-1.002-1.037-1.784Zm.901 0c0 .499.26.89.782 1.173.532.295 1.246.442 2.142.442.895 0 1.603-.147 2.125-.442.532-.283.799-.674.799-1.173s-.267-.895-.799-1.19c-.522-.306-1.23-.46-2.125-.46-.884 0-1.593.148-2.125.443-.533.295-.799.697-.799 1.207Zm1.377-7.582a1.765 1.765 0 0 0-.595 1.36c0 .544.198.997.595 1.36.396.363.906.544 1.53.544.623 0 1.133-.181 1.53-.544.396-.363.595-.816.595-1.36 0-.544-.204-.997-.612-1.36-.397-.363-.901-.544-1.513-.544-.612 0-1.122.181-1.53.544Zm7.161 6.46v-7.65h.884v1.07c.306-.34.708-.622 1.207-.85a3.624 3.624 0 0 1 1.547-.356c1.054 0 1.847.278 2.38.833.544.544.816 1.405.816 2.584v4.369h-.884v-4.2c0-1.835-.839-2.753-2.516-2.753a3.25 3.25 0 0 0-1.445.34c-.465.227-.833.504-1.105.833v5.78h-.884Z" fill="#1A1A1A"/><path d="M31.064 25.14h4.69c.924 0 1.629.26 2.114.783.485.514.728 1.181.728 2.002 0 .495-.089.952-.266 1.372-.168.42-.48.784-.938 1.092-.448.3-1.008.448-1.68.448h-3.374v4.186h-1.274V25.14Zm1.274 4.521h3.178c.541 0 .97-.149 1.288-.448.327-.298.49-.737.49-1.316 0-.55-.159-.956-.476-1.218-.317-.27-.747-.406-1.288-.406h-3.192v3.388Zm11.256 1.414v-.224c0-.177-.005-.322-.014-.434a2.326 2.326 0 0 0-.098-.448 1.113 1.113 0 0 0-.21-.448 1.06 1.06 0 0 0-.434-.308 1.651 1.651 0 0 0-.714-.14c-.457 0-.812.112-1.064.336-.243.224-.364.542-.364.952v.098l-1.162-.07c0-.102.01-.219.028-.35.028-.14.093-.322.196-.546.103-.224.238-.424.406-.602.168-.177.415-.33.742-.462a3 3 0 0 1 1.162-.21c.663 0 1.213.131 1.652.392.43.243.7.537.812.882.121.336.182.84.182 1.512v2.324c0 .168.005.3.014.392a.572.572 0 0 0 .14.252c.084.084.2.126.35.126.056 0 .168-.018.336-.056v.938c-.252.084-.49.126-.714.126-.308 0-.541-.056-.7-.168a1.109 1.109 0 0 1-.308-.392 1.219 1.219 0 0 1-.14-.42c-.663.72-1.414 1.078-2.254 1.078-.663 0-1.204-.172-1.624-.518-.41-.354-.616-.812-.616-1.372 0-.588.238-1.064.714-1.428.55-.41 1.442-.658 2.674-.742l1.008-.07Zm.014.728c-1.353.215-2.142.374-2.366.476-.541.215-.812.551-.812 1.008 0 .271.103.504.308.7.215.187.527.28.938.28a2.3 2.3 0 0 0 .56-.07c.196-.046.401-.13.616-.252.224-.13.406-.336.546-.616.14-.28.21-.616.21-1.008v-.518Zm6.874-.28c1.008.178 1.512.747 1.512 1.708 0 .635-.243 1.13-.728 1.484-.476.346-1.167.518-2.072.518-.859 0-1.55-.163-2.072-.49-.523-.326-.84-.914-.952-1.764l1.092-.168c.056.252.112.448.168.588.056.131.15.285.28.462.13.168.317.29.56.364.252.075.565.112.938.112 1.092 0 1.638-.368 1.638-1.106 0-.392-.121-.68-.364-.868-.233-.186-.635-.28-1.204-.28h-.84v-.924h.7c.99 0 1.484-.359 1.484-1.078 0-.27-.121-.504-.364-.7-.233-.196-.583-.294-1.05-.294-.401 0-.77.098-1.106.294-.336.196-.546.528-.63.994l-1.092-.14c.065-.634.355-1.129.868-1.484.523-.354 1.2-.532 2.03-.532.392 0 .76.047 1.106.14.345.084.663.266.952.546.29.271.434.621.434 1.05 0 .383-.098.705-.294.966-.187.252-.518.453-.994.602Zm2.877-3.094h1.093v.938c.233-.289.555-.55.965-.784a2.68 2.68 0 0 1 1.386-.364c.775 0 1.461.304 2.059.91.606.607.91 1.48.91 2.618 0 .411-.056.808-.169 1.19a4.217 4.217 0 0 1-.49 1.12c-.224.355-.545.64-.965.854-.42.215-.91.322-1.47.322-.448 0-.873-.084-1.274-.252a2.21 2.21 0 0 1-.953-.728v3.906H53.36v-9.73Zm1.093 3.416c0 .747.181 1.335.546 1.764.373.43.882.644 1.526.644.662 0 1.166-.228 1.511-.686.355-.457.533-1.078.533-1.862 0-.82-.201-1.432-.602-1.834-.392-.41-.85-.616-1.373-.616-.644 0-1.162.23-1.554.686-.392.458-.587 1.092-.587 1.904Zm10.689-.77v-.224c0-.177-.005-.322-.014-.434a2.334 2.334 0 0 0-.098-.448 1.113 1.113 0 0 0-.21-.448 1.06 1.06 0 0 0-.434-.308 1.651 1.651 0 0 0-.714-.14c-.457 0-.812.112-1.064.336-.243.224-.364.542-.364.952v.098l-1.162-.07c0-.102.01-.219.028-.35.028-.14.093-.322.196-.546a2.2 2.2 0 0 1 .406-.602c.168-.177.415-.33.742-.462a3 3 0 0 1 1.162-.21c.663 0 1.213.131 1.652.392.43.243.7.537.812.882.121.336.182.84.182 1.512v2.324c0 .168.005.3.014.392a.571.571 0 0 0 .14.252c.084.084.2.126.35.126.056 0 .168-.018.336-.056v.938c-.252.084-.49.126-.714.126-.308 0-.541-.056-.7-.168a1.107 1.107 0 0 1-.308-.392 1.219 1.219 0 0 1-.14-.42c-.663.72-1.414 1.078-2.254 1.078-.663 0-1.204-.172-1.624-.518-.41-.354-.616-.812-.616-1.372 0-.588.238-1.064.714-1.428.55-.41 1.442-.658 2.674-.742l1.008-.07Zm.014.728c-1.354.215-2.142.374-2.366.476-.541.215-.812.551-.812 1.008 0 .271.103.504.308.7.215.187.527.28.938.28a2.3 2.3 0 0 0 .56-.07c.196-.046.401-.13.616-.252.224-.13.406-.336.546-.616.14-.28.21-.616.21-1.008v-.518Zm7.826-6.664h1.12c0 .598-.173 1.036-.518 1.316-.336.28-.868.453-1.596.518-.98.084-1.694.336-2.142.756-.448.411-.724 1.064-.826 1.96.326-.448.676-.77 1.05-.966.373-.196.84-.294 1.4-.294.933 0 1.652.304 2.156.91.504.607.756 1.42.756 2.436 0 .42-.06.826-.182 1.218-.112.392-.29.761-.532 1.106a2.535 2.535 0 0 1-1.008.826c-.42.206-.906.308-1.456.308-1.074 0-1.886-.34-2.436-1.022-.55-.68-.826-1.596-.826-2.744 0-1.372.135-2.454.406-3.248.28-.802.71-1.386 1.288-1.75.578-.364 1.372-.578 2.38-.644.308-.018.546-.074.714-.168.168-.102.252-.275.252-.518Zm.196 6.566c0-.653-.178-1.218-.532-1.694-.346-.476-.803-.714-1.372-.714-.635 0-1.134.243-1.498.728-.364.476-.546 1.05-.546 1.722 0 .812.186 1.447.56 1.904.373.458.863.686 1.47.686.532 0 .984-.228 1.358-.686.373-.466.56-1.115.56-1.946Zm2.322.028c0-.252.024-.508.07-.77.047-.27.14-.574.28-.91a3.37 3.37 0 0 1 .575-.91c.233-.26.555-.48.965-.658.42-.177.901-.266 1.443-.266.924 0 1.675.294 2.254.882.588.58.882 1.433.882 2.562 0 1.14-.309 2.021-.925 2.646-.606.616-1.376.924-2.31.924-.952 0-1.73-.308-2.338-.924-.597-.616-.895-1.474-.895-2.576Zm1.205.056c0 .187.009.378.028.574.028.187.084.406.168.658s.195.472.335.658c.14.178.337.332.588.462.262.131.56.196.897.196.662 0 1.166-.242 1.511-.728.355-.485.532-1.162.532-2.03 0-.672-.154-1.25-.462-1.736-.308-.485-.802-.728-1.484-.728a2 2 0 0 0-1.021.252c-.29.168-.505.355-.645.56-.13.206-.233.458-.307.756a3.82 3.82 0 0 0-.126.658c-.01.14-.014.29-.014.448Zm5.596-3.36h5.487v.924H85.59v5.67h-1.091v-5.67H82.3v-.924Zm10.253 2.646v-.224c0-.177-.005-.322-.014-.434a2.326 2.326 0 0 0-.098-.448 1.113 1.113 0 0 0-.21-.448 1.06 1.06 0 0 0-.434-.308 1.651 1.651 0 0 0-.714-.14c-.457 0-.812.112-1.064.336-.243.224-.364.542-.364.952v.098l-1.162-.07c0-.102.01-.219.028-.35.028-.14.093-.322.196-.546.103-.224.238-.424.406-.602.168-.177.415-.33.742-.462a3 3 0 0 1 1.162-.21c.663 0 1.213.131 1.652.392.43.243.7.537.812.882.121.336.182.84.182 1.512v2.324c0 .168.005.3.014.392a.572.572 0 0 0 .14.252c.084.084.2.126.35.126.056 0 .168-.018.336-.056v.938c-.252.084-.49.126-.714.126-.308 0-.541-.056-.7-.168a1.109 1.109 0 0 1-.308-.392 1.219 1.219 0 0 1-.14-.42c-.663.72-1.414 1.078-2.254 1.078-.663 0-1.204-.172-1.624-.518-.41-.354-.616-.812-.616-1.372 0-.588.238-1.064.714-1.428.55-.41 1.442-.658 2.674-.742l1.008-.07Zm.014.728c-1.353.215-2.142.374-2.366.476-.541.215-.812.551-.812 1.008 0 .271.103.504.308.7.215.187.527.28.938.28a2.3 2.3 0 0 0 .56-.07c.196-.046.401-.13.616-.252.224-.13.406-.336.546-.616.14-.28.21-.616.21-1.008v-.518Zm3.066-3.374h1.092v2.674h3.388V28.43h1.092v6.594h-1.092v-2.996h-3.388v2.996h-1.092V28.43Zm7.06 3.304c0-.252.023-.508.07-.77.046-.27.14-.574.28-.91.149-.345.34-.648.574-.91.233-.26.555-.48.966-.658.42-.177.9-.266 1.442-.266.924 0 1.675.294 2.254.882.588.58.882 1.433.882 2.562 0 1.14-.308 2.021-.924 2.646-.607.616-1.377.924-2.31.924-.952 0-1.732-.308-2.338-.924-.598-.616-.896-1.474-.896-2.576Zm1.204.056c0 .187.009.378.028.574.028.187.084.406.168.658s.196.472.336.658c.14.178.336.332.588.462.261.131.56.196.896.196.662 0 1.166-.242 1.512-.728.354-.485.532-1.162.532-2.03 0-.672-.154-1.25-.462-1.736-.308-.485-.803-.728-1.484-.728-.392 0-.733.084-1.022.252-.29.168-.504.355-.644.56a2.533 2.533 0 0 0-.308.756 3.82 3.82 0 0 0-.126.658c-.01.14-.014.29-.014.448Z" fill="#929292"/><defs><filter id="a" x="113.245" y=".24" width="79.511" height="79.398" filterUnits="userSpaceOnUse" color-interpolation-filters="sRGB"><feFlood flood-opacity="0" result="BackgroundImageFix"/><feColorMatrix in="SourceAlpha" values="0 0 0 0 0 0 0 0 0 0 0 0 0 0 0 0 0 0 127 0" result="hardAlpha"/><feMorphology radius="2" operator="dilate" in="SourceAlpha" result="effect1_dropShadow_907_1334"/><feOffset dy="4"/><feGaussianBlur stdDeviation="10"/><feColorMatrix values="0 0 0 0 0.279167 0 0 0 0 0.279167 0 0 0 0 0.279167 0 0 0 0.25 0"/><feBlend in2="BackgroundImageFix" result="effect1_dropShadow_907_1334"/><feBlend in="SourceGraphic" in2="effect1_dropShadow_907_1334" result="shape"/></filter></defs></svg>