<svg width="80" height="80" fill="none" xmlns="http://www.w3.org/2000/svg"><path d="M37.046 2.598c.489-3.464 5.42-3.464 5.908 0l2.277 16.167c.337 2.393 3.17 3.438 4.945 1.825l11.991-10.9c2.57-2.335 6.347.88 4.525 3.851l-8.501 13.87c-1.259 2.053.248 4.7 2.63 4.621l16.095-.532c3.448-.114 4.304 4.81 1.025 5.9L62.64 42.482c-2.266.752-2.79 3.763-.914 5.256L74.39 57.822c2.714 2.16.248 6.491-2.954 5.188l-14.943-6.083c-2.213-.9-4.522 1.064-4.031 3.43l3.311 15.982c.71 3.424-3.924 5.135-5.55 2.05L42.63 63.986c-1.124-2.133-4.138-2.133-5.262 0l-7.592 14.401c-1.627 3.086-6.26 1.375-5.551-2.049l3.311-15.981c.49-2.367-1.818-4.332-4.03-3.431L8.562 63.01c-3.202 1.303-5.668-3.028-2.954-5.188l12.666-10.084c1.875-1.493 1.352-4.504-.914-5.256L2.06 37.4c-3.28-1.09-2.423-6.014 1.025-5.9l16.094.532c2.383.079 3.89-2.568 2.631-4.622l-8.501-13.869c-1.822-2.971 1.956-6.186 4.525-3.85l11.99 10.899c1.776 1.613 4.608.568 4.946-1.825l2.277-16.167Z" fill="#1D1D1D"/></svg>