<svg width="42" height="42" fill="none" xmlns="http://www.w3.org/2000/svg"><path d="M19.45 1.364c.256-1.819 2.844-1.819 3.1 0l1.196 8.487c.177 1.257 1.664 1.806 2.596.959l6.296-5.723c1.349-1.226 3.332.462 2.376 2.022L30.55 14.39c-.66 1.079.13 2.468 1.381 2.427l8.45-.28c1.81-.06 2.26 2.526.538 3.098l-8.034 2.668c-1.19.395-1.464 1.976-.48 2.76l6.65 5.293c1.425 1.135.13 3.408-1.55 2.724l-7.846-3.193c-1.161-.473-2.373.558-2.116 1.8l1.739 8.391c.372 1.798-2.06 2.696-2.915 1.076l-3.986-7.561a1.556 1.556 0 0 0-2.762 0l-3.986 7.56c-.854 1.62-3.287.723-2.914-1.075l1.738-8.39c.257-1.243-.955-2.274-2.116-1.801L4.495 33.08c-1.68.684-2.975-1.59-1.55-2.724l6.65-5.294c.984-.784.71-2.364-.48-2.759L1.08 19.635c-1.722-.572-1.272-3.158.538-3.098l8.45.28c1.25.041 2.042-1.348 1.38-2.427l-4.46-7.28C6.03 5.548 8.013 3.86 9.362 5.086l6.296 5.723c.932.847 2.419.298 2.596-.959l1.195-8.487Z" fill="#1D1D1D"/></svg>