<svg width="24" height="24" fill="none" xmlns="http://www.w3.org/2000/svg"><path d="M11.114.78c.146-1.04 1.626-1.04 1.772 0l.683 4.85c.101.717.951 1.031 1.484.547l3.597-3.27c.77-.7 1.904.264 1.358 1.155l-2.55 4.161c-.378.616.074 1.41.789 1.387l4.828-.16c1.034-.034 1.291 1.443.307 1.77l-4.59 1.525c-.68.225-.837 1.128-.275 1.576l3.8 3.025c.814.649.075 1.948-.886 1.557l-4.483-1.825c-.664-.27-1.356.32-1.21 1.03l.994 4.794c.213 1.027-1.177 1.54-1.665.614l-2.278-4.32a.89.89 0 0 0-1.578 0l-2.278 4.32c-.488.926-1.878.413-1.665-.614l.993-4.795c.147-.71-.545-1.3-1.21-1.029L2.57 18.903c-.96.39-1.7-.908-.886-1.556l3.8-3.026c.562-.448.405-1.35-.275-1.576L.618 11.22c-.984-.327-.727-1.804.307-1.77l4.828.16c.715.023 1.167-.77.79-1.387l-2.55-4.16c-.547-.892.586-1.857 1.357-1.156l3.597 3.27c.533.484 1.383.17 1.484-.548l.683-4.85Z" fill="#F4996B"/></svg>