<svg width="168" height="168" fill="none" xmlns="http://www.w3.org/2000/svg"><path d="M77.797 5.456c1.025-7.275 11.38-7.275 12.406 0l4.783 33.95c.708 5.026 6.655 7.221 10.384 3.833l25.181-22.89c5.395-4.904 13.328 1.847 9.503 8.087l-17.853 29.126c-2.644 4.312.521 9.871 5.525 9.706l33.797-1.118c7.241-.24 9.039 10.103 2.154 12.39l-32.136 10.672c-4.758 1.58-5.857 7.902-1.919 11.037l26.599 21.176c5.699 4.537.521 13.633-6.203 10.896l-31.381-12.774c-4.647-1.891-9.495 2.235-8.466 7.204l6.955 33.561c1.49 7.191-8.241 10.783-11.657 4.303l-15.944-30.243c-2.36-4.478-8.69-4.478-11.05 0L62.53 164.615c-3.416 6.48-13.147 2.888-11.657-4.303l6.954-33.561c1.03-4.969-3.818-9.095-8.465-7.204l-31.381 12.774c-6.724 2.737-11.902-6.359-6.203-10.896l26.599-21.176c3.938-3.135 2.839-9.457-1.92-11.037L4.324 78.54c-6.886-2.287-5.088-12.63 2.153-12.39l33.797 1.119c5.004.165 8.169-5.394 5.525-9.706L27.946 28.437c-3.825-6.24 4.108-12.992 9.503-8.087L62.63 43.239c3.729 3.388 9.676 1.193 10.384-3.834l4.784-33.95Z" fill="#fff"/></svg>