<svg width="31" height="32" viewBox="0 0 31 32" fill="none" xmlns="http://www.w3.org/2000/svg">
<g id="Frame" clip-path="url(#clip0_907_797)">
<g id="Group">
<path id="Vector" d="M16.7917 1.79165C16.7917 1.44908 16.9278 1.12054 17.17 0.878308C17.4122 0.636073 17.7408 0.499988 18.0833 0.499988C21.5079 0.503748 24.7911 1.86582 27.2126 4.28735C29.6342 6.70888 30.9962 9.9921 31 13.4167C31 13.7592 30.8639 14.0878 30.6217 14.33C30.3794 14.5722 30.0509 14.7083 29.7083 14.7083C29.3658 14.7083 29.0372 14.5722 28.795 14.33C28.5528 14.0878 28.4167 13.7592 28.4167 13.4167C28.4136 10.677 27.3239 8.05049 25.3867 6.11328C23.4495 4.17607 20.823 3.0864 18.0833 3.08332C17.7408 3.08332 17.4122 2.94724 17.17 2.705C16.9278 2.46277 16.7917 2.13423 16.7917 1.79165ZM18.0833 8.24999C19.4536 8.24999 20.7678 8.79433 21.7367 9.76327C22.7057 10.7322 23.25 12.0464 23.25 13.4167C23.25 13.7592 23.3861 14.0878 23.6283 14.33C23.8706 14.5722 24.1991 14.7083 24.5417 14.7083C24.8842 14.7083 25.2128 14.5722 25.455 14.33C25.6973 14.0878 25.8333 13.7592 25.8333 13.4167C25.8313 11.3619 25.0141 9.39181 23.5611 7.93884C22.1082 6.48588 20.1381 5.66871 18.0833 5.66665C17.7408 5.66665 17.4122 5.80274 17.17 6.04498C16.9278 6.28721 16.7917 6.61575 16.7917 6.95832C16.7917 7.30089 16.9278 7.62943 17.17 7.87167C17.4122 8.1139 17.7408 8.24999 18.0833 8.24999ZM29.8285 22.1212C30.577 22.8718 30.9973 23.8886 30.9973 24.9487C30.9973 26.0087 30.577 27.0255 29.8285 27.7761L28.653 29.1311C18.0743 39.259 -7.66862 13.5226 2.30304 2.91024L3.78846 1.61857C4.53991 0.890946 5.54762 0.488426 6.59358 0.498095C7.63953 0.507764 8.63963 0.928845 9.3775 1.67024C9.41754 1.71028 11.811 4.81932 11.811 4.81932C12.5212 5.56542 12.9165 6.55652 12.9149 7.58659C12.9132 8.61666 12.5146 9.60646 11.802 10.3502L10.3062 12.2309C11.134 14.2422 12.351 16.0701 13.8874 17.6095C15.4237 19.149 17.2492 20.3697 19.2588 21.2015L21.151 19.6967C21.8949 18.9847 22.8845 18.5865 23.9143 18.5851C24.9441 18.5837 25.9348 18.979 26.6807 19.689C26.6807 19.689 29.7884 22.0812 29.8285 22.1212ZM28.0511 23.9993C28.0511 23.9993 24.9602 21.6213 24.9201 21.5813C24.654 21.3174 24.2945 21.1694 23.9197 21.1694C23.545 21.1694 23.1854 21.3174 22.9193 21.5813C22.8845 21.6174 20.2792 23.6932 20.2792 23.6932C20.1036 23.8329 19.8947 23.9245 19.6729 23.9589C19.4512 23.9934 19.2243 23.9694 19.0146 23.8895C16.4112 22.9202 14.0465 21.4027 12.0807 19.4398C10.115 17.4769 8.59398 15.1145 7.62084 12.5125C7.53455 12.3 7.50642 12.0683 7.53934 11.8413C7.57225 11.6142 7.66503 11.4001 7.80813 11.2208C7.80813 11.2208 9.88384 8.61424 9.91871 8.58066C10.1826 8.31455 10.3306 7.95499 10.3306 7.58026C10.3306 7.20553 10.1826 6.84596 9.91871 6.57986C9.87867 6.54111 7.50071 3.44757 7.50071 3.44757C7.23062 3.20539 6.87813 3.07569 6.51549 3.08506C6.15285 3.09443 5.80752 3.24215 5.55029 3.49795L4.06488 4.78961C-3.22271 13.5523 19.0857 34.6232 26.7646 27.3667L27.9413 26.0104C28.2171 25.755 28.3827 25.4024 28.4032 25.0271C28.4237 24.6518 28.2974 24.2832 28.0511 23.9993Z" fill="black"/>
</g>
</g>
<defs>
<clipPath id="clip0_907_797">
<rect width="31" height="31" fill="white" transform="translate(0 0.5)"/>
</clipPath>
</defs>
</svg>
