<svg width="168" height="168" viewBox="0 0 168 168" fill="none" xmlns="http://www.w3.org/2000/svg">
<path d="M77.7975 5.45554C78.8224 -1.8185 89.1776 -1.81852 90.2025 5.45552L94.9856 39.4054C95.6938 44.4319 101.641 46.6274 105.37 43.2386L130.551 20.3496C135.946 15.4455 143.879 22.1961 140.054 28.4365L122.201 57.5618C119.557 61.8739 122.722 67.4332 127.726 67.2676L161.523 66.1496C168.764 65.9101 170.562 76.2527 163.677 78.5394L131.541 89.2121C126.783 90.7922 125.684 97.1139 129.622 100.249L156.221 121.425C161.92 125.962 156.742 135.058 150.018 132.321L118.637 119.547C113.99 117.656 109.142 121.782 110.171 126.751L117.126 160.312C118.616 167.503 108.885 171.095 105.469 164.615L89.5253 134.372C87.1647 129.894 80.8353 129.894 78.4747 134.372L62.5309 164.615C59.1149 171.095 49.3841 167.503 50.8741 160.312L57.8285 126.751C58.8582 121.782 54.0096 117.656 49.3633 119.547L17.9816 132.321C11.2578 135.058 6.08017 125.962 11.7791 121.425L38.3777 100.249C42.3158 97.1139 41.2167 90.7922 36.4588 89.2121L4.32302 78.5394C-2.56233 76.2527 -0.764169 65.9101 6.4771 66.1496L40.2741 67.2676C45.2779 67.4332 48.4426 61.8739 45.7994 57.5618L27.9462 28.4365C24.121 22.1961 32.0536 15.4455 37.4489 20.3496L62.6303 43.2386C66.3585 46.6274 72.3062 44.4319 73.0144 39.4054L77.7975 5.45554Z" fill="white"/>
</svg>
