<svg width="42" height="42" viewBox="0 0 42 42" fill="none" xmlns="http://www.w3.org/2000/svg">
<path id="Star 9" d="M19.4494 1.36388C19.7056 -0.454626 22.2944 -0.454629 22.5506 1.36388L23.7464 9.85136C23.9234 11.108 25.4104 11.6569 26.3424 10.8096L32.6378 5.0874C33.9866 3.86137 35.9698 5.54903 35.0135 7.10912L30.5502 14.3904C29.8893 15.4685 30.6805 16.8583 31.9315 16.8169L40.3807 16.5374C42.191 16.4775 42.6406 19.0632 40.9192 19.6348L32.8853 22.303C31.6958 22.698 31.4211 24.2785 32.4056 25.0623L39.0552 30.3563C40.48 31.4906 39.1856 33.7644 37.5046 33.0801L29.6592 29.8867C28.4976 29.4139 27.2855 30.4454 27.5429 31.6877L29.2815 40.0781C29.654 41.8758 27.2213 42.7738 26.3673 41.1538L22.3813 33.593C21.7912 32.4735 20.2088 32.4735 19.6187 33.593L15.6327 41.1538C14.7787 42.7738 12.346 41.8758 12.7185 40.0781L14.4571 31.6877C14.7145 30.4454 13.5024 29.4139 12.3408 29.8867L4.4954 33.0801C2.81445 33.7644 1.52004 31.4906 2.94478 30.3563L9.59443 25.0623C10.5789 24.2785 10.3042 22.698 9.1147 22.303L1.08076 19.6348C-0.640582 19.0632 -0.191042 16.4775 1.61927 16.5374L10.0685 16.8169C11.3195 16.8583 12.1107 15.4685 11.4498 14.3904L6.98654 7.10912C6.03025 5.54904 8.01339 3.86136 9.36222 5.0874L15.6576 10.8096C16.5896 11.6569 18.0766 11.108 18.2536 9.85136L19.4494 1.36388Z" fill="#1D1D1D"/>
</svg>
