<svg width="60" height="60" fill="none" xmlns="http://www.w3.org/2000/svg"><g clip-path="url(#a)" fill="#F4996B"><path d="M46.406.938H13.594A11.733 11.733 0 0 0 1.875 12.655V45.47a11.733 11.733 0 0 0 11.719 11.718h32.812A11.732 11.732 0 0 0 58.125 45.47V12.656A11.733 11.733 0 0 0 46.406.937Zm7.032 44.53a7.031 7.031 0 0 1-7.032 7.032H13.594a7.031 7.031 0 0 1-7.031-7.031V12.656a7.031 7.031 0 0 1 7.03-7.031h32.813a7.031 7.031 0 0 1 7.032 7.031V45.47Z"/><path d="m23.75 38.248-9.186-9.186a2.344 2.344 0 0 0-3.314 3.314l9.185 9.186a4.687 4.687 0 0 0 6.63 0L48.75 19.877a2.344 2.344 0 0 0-3.314-3.314L23.749 38.248Z"/></g><defs><clipPath id="a"><path fill="#fff" transform="translate(1.875 .938)" d="M0 0h56.25v56.25H0z"/></clipPath></defs></svg>