<svg width="60" height="60" fill="none" xmlns="http://www.w3.org/2000/svg"><g clip-path="url(#a)"><path d="M50.313 25.156h-.279a7.508 7.508 0 0 0-6.987-9.687H9.14c-13.202.9-4.844 20.951-1.427 26.427a16.655 16.655 0 0 0 14.06 7.479h8.638a16.65 16.65 0 0 0 13.906-7.266h5.995c11.658-.225 13.947-17.384 0-16.953ZM30.412 44.531h-8.639a11.82 11.82 0 0 1-10.005-5.277c-1.317-1.262-8.697-18.941-2.627-18.941h33.906a2.356 2.356 0 0 1 1.765.787 2.489 2.489 0 0 1 .633 1.937c-1.364 10.315-3.929 21.037-15.033 21.494Zm19.9-7.265h-3.42A40.733 40.733 0 0 0 49.204 30c2.928-.196 6.166.523 5.953 2.768a4.805 4.805 0 0 1-4.843 4.498ZM23.733 8.203V3.36a2.422 2.422 0 0 1 4.844 0v4.844a2.422 2.422 0 0 1-4.844 0Zm9.688 0V3.36a2.422 2.422 0 0 1 4.844 0v4.844a2.422 2.422 0 0 1-4.844 0Zm-19.375 0V3.36a2.422 2.422 0 0 1 4.844 0v4.844a2.422 2.422 0 0 1-4.844 0Zm36.267 48.438a2.422 2.422 0 0 1-2.421 2.422H4.297a2.422 2.422 0 0 1 0-4.844H47.89a2.422 2.422 0 0 1 2.422 2.422Z" fill="#F4996B"/></g><defs><clipPath id="a"><path fill="#fff" transform="translate(1.875 .938)" d="M0 0h58.125v58.125H0z"/></clipPath></defs></svg>