<svg width="60" height="60" fill="none" xmlns="http://www.w3.org/2000/svg"><g clip-path="url(#a)"><path d="M33.36 3.36A2.422 2.422 0 0 1 35.78.936 24.245 24.245 0 0 1 60 25.157a2.422 2.422 0 0 1-4.844 0A19.397 19.397 0 0 0 35.781 5.78a2.422 2.422 0 0 1-2.421-2.42Zm2.421 12.109a9.688 9.688 0 0 1 9.688 9.687 2.422 2.422 0 0 0 4.843 0 14.546 14.546 0 0 0-14.53-14.531 2.422 2.422 0 1 0 0 4.844Zm22.022 26.008a7.508 7.508 0 0 1 0 10.603L55.6 54.62C35.764 73.61-12.504 25.356 6.193 5.458l2.785-2.422a7.462 7.462 0 0 1 10.48.097c.075.075 4.563 5.904 4.563 5.904a7.508 7.508 0 0 1-.017 10.37l-2.805 3.527a30.954 30.954 0 0 0 16.786 16.82l3.548-2.822a7.508 7.508 0 0 1 10.368-.014s5.827 4.485 5.902 4.56ZM54.471 45s-5.796-4.459-5.87-4.534a2.664 2.664 0 0 0-3.752 0c-.066.068-4.95 3.96-4.95 3.96a2.422 2.422 0 0 1-2.372.368A36.35 36.35 0 0 1 16.164 23.46a2.422 2.422 0 0 1 .351-2.422s3.892-4.887 3.958-4.95a2.664 2.664 0 0 0 0-3.752c-.075-.072-4.534-5.873-4.534-5.873a2.664 2.664 0 0 0-3.657.095L9.497 8.98C-4.168 25.41 37.66 64.919 52.059 51.312l2.206-2.542a2.715 2.715 0 0 0 .206-3.771Z" fill="#F4996B"/></g><defs><clipPath id="a"><path fill="#fff" transform="translate(1.875 .938)" d="M0 0h58.125v58.125H0z"/></clipPath></defs></svg>