<svg width="60" height="60" fill="none" xmlns="http://www.w3.org/2000/svg"><g clip-path="url(#a)"><path d="M42.5 60h-25C10.607 60 5 54.392 5 47.5v-35C5 5.607 10.607 0 17.5 0h25C49.392 0 55 5.607 55 12.5v35C55 54.392 49.392 60 42.5 60Zm-25-55C13.365 5 10 8.365 10 12.5v35c0 4.135 3.365 7.5 7.5 7.5h25c4.135 0 7.5-3.365 7.5-7.5v-35C50 8.365 46.635 5 42.5 5h-25ZM45 15a2.5 2.5 0 0 0-2.5-2.5h-10a2.5 2.5 0 0 0 0 5h10A2.5 2.5 0 0 0 45 15Zm0 15a2.5 2.5 0 0 0-2.5-2.5h-10a2.5 2.5 0 0 0 0 5h10A2.5 2.5 0 0 0 45 30Zm0 15a2.5 2.5 0 0 0-2.5-2.5h-10a2.5 2.5 0 0 0 0 5h10A2.5 2.5 0 0 0 45 45ZM25 17.5v-5a2.5 2.5 0 0 0-2.5-2.5h-5a2.5 2.5 0 0 0-2.5 2.5v5a2.5 2.5 0 0 0 2.5 2.5h5a2.5 2.5 0 0 0 2.5-2.5Zm0 15v-5a2.5 2.5 0 0 0-2.5-2.5h-5a2.5 2.5 0 0 0-2.5 2.5v5a2.5 2.5 0 0 0 2.5 2.5h5a2.5 2.5 0 0 0 2.5-2.5Zm0 15v-5a2.5 2.5 0 0 0-2.5-2.5h-5a2.5 2.5 0 0 0-2.5 2.5v5a2.5 2.5 0 0 0 2.5 2.5h5a2.5 2.5 0 0 0 2.5-2.5Z" fill="#F4996B"/></g><defs><clipPath id="a"><path fill="#fff" d="M0 0h60v60H0z"/></clipPath></defs></svg>