<svg width="237" height="236" viewBox="0 0 237 236" fill="none" xmlns="http://www.w3.org/2000/svg">
<path d="M109.49 7.66373C110.93 -2.55456 125.476 -2.55458 126.916 7.66371L133.635 55.3552C134.63 62.4162 142.985 65.5004 148.223 60.7399L183.596 28.5864C191.175 21.6972 202.319 31.1803 196.945 39.9465L171.866 80.8606C168.153 86.9181 172.598 94.7276 179.628 94.495L227.104 92.9244C237.277 92.5879 239.803 107.117 230.13 110.329L184.987 125.322C178.303 127.541 176.76 136.422 182.292 140.826L219.656 170.573C227.662 176.947 220.389 189.724 210.943 185.879L166.859 167.935C160.333 165.278 153.521 171.074 154.968 178.055L164.737 225.201C166.83 235.302 153.161 240.348 148.362 231.245L125.965 188.761C122.649 182.47 113.757 182.47 110.441 188.761L88.0442 231.245C83.2454 240.348 69.576 235.302 71.6692 225.201L81.4385 178.055C82.8849 171.074 76.0737 165.278 69.5468 167.935L25.463 185.879C16.0177 189.724 8.74432 176.947 16.75 170.574L54.1147 140.826C59.6467 136.422 58.1028 127.541 51.4191 125.322L6.27594 110.329C-3.39634 107.117 -0.870351 92.5879 9.30191 92.9244L56.7786 94.495C63.8078 94.7276 68.2535 86.9182 64.5403 80.8606L39.4608 39.9465C34.0874 31.1803 45.2308 21.6972 52.8099 28.5863L88.1837 60.7399C93.421 65.5004 101.776 62.4162 102.771 55.3553L109.49 7.66373Z" fill="#F4996B"/>
</svg>
