<svg width="175" height="175" viewBox="0 0 175 175" fill="none" xmlns="http://www.w3.org/2000/svg">
<path d="M80.8597 5.67027C81.9249 -1.89008 92.6878 -1.89009 93.7529 5.67026L98.7243 40.9565C99.4604 46.1808 105.642 48.4627 109.517 44.9405L135.69 21.1506C141.297 16.0534 149.542 23.0698 145.566 29.5557L127.011 59.8275C124.263 64.3093 127.553 70.0874 132.753 69.9154L167.881 68.7533C175.407 68.5043 177.276 79.2541 170.119 81.6308L136.719 92.7235C131.774 94.3659 130.631 100.936 134.724 104.195L162.37 126.205C168.293 130.92 162.912 140.373 155.923 137.529L123.306 124.252C118.477 122.287 113.438 126.575 114.508 131.74L121.736 166.622C123.285 174.096 113.171 177.83 109.62 171.095L93.0491 139.661C90.5956 135.007 84.017 135.007 81.5636 139.661L64.9922 171.095C61.4417 177.83 51.3279 174.096 52.8766 166.622L60.1047 131.74C61.1749 126.575 56.1354 122.287 51.3063 124.252L18.6894 137.529C11.7009 140.373 6.31949 130.92 12.2428 126.205L39.8883 104.195C43.9814 100.936 42.839 94.3659 37.8939 92.7235L4.49318 81.6308C-2.66318 79.2541 -0.794248 68.5043 6.73204 68.7533L41.8593 69.9154C47.0601 70.0874 50.3494 64.3093 47.6021 59.8275L29.0462 29.5558C25.0704 23.0698 33.3152 16.0534 38.9229 21.1506L65.0954 44.9405C68.9704 48.4627 75.1523 46.1808 75.8883 40.9565L80.8597 5.67027Z" fill="#F4996B"/>
</svg>
