<svg width="100" height="59" viewBox="0 0 100 59" fill="none" xmlns="http://www.w3.org/2000/svg">
<path d="M6.71819 0.40332H21.7385C25.4162 0.40332 28.4385 1.71419 30.8053 4.33592C33.1358 6.88482 34.0097 10.3258 33.4271 14.659C32.8081 18.7008 31.0784 21.9052 28.2382 24.272C25.3616 26.6388 21.6839 27.8223 17.2051 27.8223H12.8356L10.9239 38.6369H0L6.71819 0.40332ZM22.6124 14.1128C22.7945 13.1661 22.6124 12.4196 22.0662 11.8734C21.52 11.2908 20.7918 10.9995 19.8815 10.9995H15.785L14.6926 17.2261H19.0622C19.9361 17.2261 20.7008 16.953 21.3562 16.4068C22.048 15.8242 22.4668 15.0595 22.6124 14.1128Z" fill="#FF752F"/>
<path d="M62.0126 14.3859C61.1751 19.0832 58.6262 22.506 54.3659 24.6543L59.2816 38.6369H48.3578L44.4252 26.6206H40.9295L38.7994 38.6369H27.8755L34.6483 0.40332H49.9417C53.9107 0.40332 57.0969 1.73239 59.5001 4.39054C61.9034 7.01227 62.7409 10.3441 62.0126 14.3859ZM48.1393 10.4533H43.7697L42.5135 17.5538H46.9923C48.0483 17.5902 48.9404 17.2989 49.6686 16.6799C50.4333 16.0609 50.9067 15.187 51.0887 14.0582C51.2708 12.9294 51.0887 12.0555 50.5425 11.4364C50.0328 10.781 49.2317 10.4533 48.1393 10.4533Z" fill="#FF752F"/>
<path d="M76.8483 40.3848C72.7336 40.3848 69.1834 39.3653 66.1975 37.3262C63.3209 35.287 61.2818 32.7199 60.0801 29.6248C58.9149 26.5297 58.6054 23.2344 59.1516 19.7387C60.0255 14.4588 62.5198 9.92543 66.6345 6.13848C70.7855 2.31512 75.8834 0.403442 81.9279 0.403442C84.9866 0.403442 87.754 0.986049 90.2301 2.15126C92.7425 3.28006 94.727 4.84582 96.1836 6.84853C99.2058 10.9632 100.298 15.624 99.4607 20.8311C98.6232 26.1474 96.1654 30.7354 92.0871 34.5952C88.0817 38.455 83.0021 40.3848 76.8483 40.3848ZM71.441 27.0577C72.8975 28.8055 74.973 29.6794 77.6676 29.6794C80.3621 29.6794 82.7472 28.8055 84.8227 27.0577C86.8983 25.2735 88.1727 23.0523 88.6461 20.3941C89.1195 17.736 88.6279 15.533 87.1714 13.7852C85.7148 12.001 83.6393 11.1088 80.9448 11.1088C78.2138 11.1088 75.8287 12.001 73.7896 13.7852C71.7141 15.533 70.4396 17.736 69.9663 20.3941C69.4929 23.0523 69.9845 25.2735 71.441 27.0577Z" fill="#FF752F"/>
<rect width="99.7334" height="14.9971" transform="translate(0 43.2258)" fill="#1D1D1D"/>
<path d="M10.2013 47.5527L8.0792 51.3279L9.45096 55.3728H7.2116L6.28537 51.6328L5.87502 55.3728H3.7998L4.7612 47.5527H6.83642L6.36745 51.0465L8.00886 47.5527H10.2013Z" fill="white"/>
<path d="M20.1577 47.5527L19.9232 49.3934H18.1411L18.0004 50.5307H19.6067L19.3839 52.3011H17.7894L17.637 53.4969H19.4191L19.1963 55.3728H15.3273L16.2887 47.5527H20.1577Z" fill="white"/>
<path d="M25.3548 55.3728L26.3162 47.5527H28.3094L28.0397 49.7217C27.9303 50.644 27.7466 51.5233 27.4886 52.3597C27.8404 51.539 28.1999 50.7769 28.5673 50.0734L29.9156 47.5527H31.768L30.8066 55.3728H28.8135L29.0714 53.2859C29.1652 52.4886 29.3098 51.6523 29.5052 50.7769C29.2942 51.3944 28.9542 52.1369 28.4852 53.0045L27.2073 55.3728H25.3548ZM30.0328 45.1257L31.4984 45.5595C31.3655 46.0832 31.0841 46.4701 30.6542 46.7202C30.3025 46.9313 29.8296 47.0368 29.2356 47.0368C28.6494 47.0368 28.1882 46.9352 27.8521 46.732C27.4144 46.4662 27.1291 46.0793 26.9962 45.5713L28.4852 45.1257C28.5165 45.329 28.5946 45.4892 28.7197 45.6064C28.8526 45.7237 29.0363 45.7823 29.2708 45.7823C29.5052 45.7823 29.6889 45.7159 29.8218 45.583C29.9312 45.4579 30.0016 45.3055 30.0328 45.1257Z" fill="white"/>
<path d="M41.9523 47.5527L41.7178 49.4286H40.5688L39.8419 55.3728H37.7667L38.4936 49.4286H37.3446L37.5791 47.5527H41.9523Z" fill="white"/>
<path d="M51.683 47.5527L51.4485 49.3934H49.6664L49.5257 50.5307H51.132L50.9092 52.3011H49.3147L49.1623 53.4969H50.9444L50.7216 55.3728H46.8526L47.814 47.5527H51.683Z" fill="white"/>
<path d="M57.8415 47.5527H59.8581C61.7184 47.5527 62.6485 48.3069 62.6485 49.8155C62.6485 50.7144 62.3632 51.4569 61.7926 52.0431C61.1986 52.645 60.3584 52.899 59.2719 52.8052L58.9553 55.3728H56.8801L57.8415 47.5527ZM59.4947 51.0583H59.6002C59.8816 51.0583 60.1043 50.9606 60.2685 50.7652C60.4404 50.5619 60.5264 50.3196 60.5264 50.0382C60.5264 49.8116 60.4678 49.6279 60.3505 49.4872C60.2411 49.3387 60.077 49.2644 59.8581 49.2644H59.7057L59.4947 51.0583Z" fill="white"/>
<path d="M67.9954 55.3728L68.9568 47.5527H70.9499L70.6803 49.7217C70.5708 50.644 70.3872 51.5233 70.1292 52.3597C70.481 51.539 70.8405 50.7769 71.2079 50.0734L72.5562 47.5527H74.4086L73.4472 55.3728H71.4541L71.712 53.2859C71.8058 52.4886 71.9504 51.6523 72.1458 50.7769C71.9348 51.3944 71.5948 52.1369 71.1258 53.0045L69.8478 55.3728H67.9954Z" fill="white"/>
<path d="M85.906 47.5527L84.9446 55.3728H82.8694L83.2563 52.2307H82.2598L81.8728 55.3728H79.7976L80.759 47.5527H82.8342L82.4942 50.3196H83.4908L83.8308 47.5527H85.906Z" fill="white"/>
<path d="M95.9333 47.5527L95.7106 49.3934H94.116L93.3774 55.3728H91.3022L92.2636 47.5527H95.9333Z" fill="white"/>
</svg>
