<svg width="102" height="24" viewBox="0 0 102 24" fill="none" xmlns="http://www.w3.org/2000/svg">
<path d="M5.648 18.648H16.464V23H0.24V1.304H5.648V18.648ZM31.72 23.448C24.008 23.448 17.768 18.424 17.768 12.024C17.768 5.624 23.976 0.504 31.752 0.504C39.432 0.504 45.672 5.464 45.672 11.96C45.672 18.424 39.464 23.448 31.72 23.448ZM23.784 12.152C23.784 16.888 27.528 19.288 31.656 19.288C35.88 19.288 39.688 16.792 39.688 11.896C39.688 7.32 36.36 4.76 32.008 4.728C27.4 4.696 23.784 7.448 23.784 12.152ZM47.1743 11.864C47.1743 5.496 52.8063 0.375999 60.5823 0.375999C64.9023 0.375999 68.7103 2.136 71.1423 4.856L66.1183 7.768C64.7743 6.328 62.6943 5.368 60.4543 5.368C56.3583 5.368 53.0303 8.28 53.0303 11.864C53.0303 15.96 56.0383 18.392 60.1023 18.392C61.9583 18.392 64.6783 17.528 66.0223 16.024V13.816H57.8303V10.648H71.0783V23.192H67.1743V20.92C65.1263 22.36 62.5983 23.416 60.1023 23.416C52.1343 23.416 47.1743 18.264 47.1743 11.864ZM87.4388 23.448C79.7268 23.448 73.4868 18.424 73.4868 12.024C73.4868 5.624 79.6948 0.504 87.4708 0.504C95.1508 0.504 101.391 5.464 101.391 11.96C101.391 18.424 95.1828 23.448 87.4388 23.448ZM79.5028 12.152C79.5028 16.888 83.2468 19.288 87.3748 19.288C91.5988 19.288 95.4068 16.792 95.4068 11.896C95.4068 7.32 92.0788 4.76 87.7268 4.728C83.1188 4.696 79.5028 7.448 79.5028 12.152Z" fill="#FF361F"/>
</svg>
