<svg width="193" height="80" viewBox="0 0 193 80" fill="none" xmlns="http://www.w3.org/2000/svg">
<g filter="url(#filter0_d_907_1334)">
<rect width="26.8275" height="26.8275" rx="3" transform="matrix(0.70823 -0.705982 0.70823 0.705982 134 35.9395)" fill="white"/>
</g>
<ellipse cx="153.043" cy="35.9421" rx="10.8814" ry="10.8473" fill="#1C202A"/>
<rect x="146.241" y="29.1602" width="13.6984" height="13.6546" rx="3" fill="white"/>
<ellipse cx="153.024" cy="35.9217" rx="4.74178" ry="4.72639" fill="#1C202A"/>
<rect width="3.06956" height="3.06956" rx="1" transform="matrix(0.708197 -0.706015 0.708197 0.706015 151.002 35.9395)" fill="white"/>
<path d="M3.96 52.9609H1.746V40.3609C2.01 40.3609 2.688 40.3549 3.78 40.3429C4.884 40.3309 5.484 40.3249 5.58 40.3249C8.628 40.3249 10.152 41.6209 10.152 44.2129C10.152 45.1849 9.906 45.9769 9.414 46.5889C8.922 47.1889 8.358 47.5969 7.722 47.8129L11.664 52.9609H8.982L5.508 48.2449H3.96V52.9609ZM5.472 42.3949C5.256 42.3949 4.752 42.4069 3.96 42.4309V46.1749H5.4C6.084 46.1749 6.654 46.0069 7.11 45.6709C7.578 45.3229 7.812 44.8429 7.812 44.2309C7.812 43.0069 7.032 42.3949 5.472 42.3949ZM18.6154 50.6929L19.2094 52.1509C18.4174 52.8229 17.3854 53.1589 16.1134 53.1589C14.8054 53.1589 13.7494 52.7689 12.9454 51.9889C12.1534 51.2089 11.7574 50.1829 11.7574 48.9109C11.7574 47.6989 12.1474 46.6909 12.9274 45.8869C13.7074 45.0709 14.7454 44.6629 16.0414 44.6629C17.1094 44.6629 18.0154 45.0169 18.7594 45.7249C19.5034 46.4209 19.8754 47.3209 19.8754 48.4249C19.8754 48.8809 19.8334 49.2529 19.7494 49.5409H13.8994C13.9834 50.1409 14.2474 50.6089 14.6914 50.9449C15.1354 51.2689 15.6814 51.4309 16.3294 51.4309C17.2414 51.4309 18.0034 51.1849 18.6154 50.6929ZM15.9514 46.3909C14.7754 46.3909 14.0674 46.9789 13.8274 48.1549H17.8054C17.8174 47.6509 17.6554 47.2309 17.3194 46.8949C16.9834 46.5589 16.5274 46.3909 15.9514 46.3909ZM27.1959 56.5609V52.5469C26.5599 52.9549 25.8939 53.1589 25.1979 53.1589C23.9139 53.1589 22.8879 52.7749 22.1199 52.0069C21.3639 51.2269 20.9859 50.1949 20.9859 48.9109C20.9859 47.7109 21.4239 46.7029 22.2999 45.8869C23.1759 45.0709 24.2859 44.6629 25.6299 44.6629C27.0219 44.6629 28.2339 44.9869 29.2659 45.6349V56.5609H27.1959ZM25.4679 51.2329C26.1639 51.2329 26.7399 50.9869 27.1959 50.4949V47.0029C26.6439 46.7389 26.1159 46.6069 25.6119 46.6069C24.8559 46.6069 24.2619 46.8409 23.8299 47.3089C23.4099 47.7649 23.1999 48.3289 23.1999 49.0009C23.1999 49.6489 23.4039 50.1829 23.8119 50.6029C24.2319 51.0229 24.7839 51.2329 25.4679 51.2329ZM38.8706 44.8609V52.9609H36.8006V51.9709C36.1526 52.7629 35.2886 53.1589 34.2086 53.1589C33.3686 53.1589 32.6846 52.8769 32.1566 52.3129C31.6286 51.7489 31.3646 50.9149 31.3646 49.8109V44.8609H33.4346V49.3789C33.4346 50.6149 33.9506 51.2329 34.9826 51.2329C35.6906 51.2329 36.2966 50.9029 36.8006 50.2429V44.8609H38.8706ZM47.5314 50.6929L48.1254 52.1509C47.3334 52.8229 46.3014 53.1589 45.0294 53.1589C43.7214 53.1589 42.6654 52.7689 41.8614 51.9889C41.0694 51.2089 40.6734 50.1829 40.6734 48.9109C40.6734 47.6989 41.0634 46.6909 41.8434 45.8869C42.6234 45.0709 43.6614 44.6629 44.9574 44.6629C46.0254 44.6629 46.9314 45.0169 47.6754 45.7249C48.4194 46.4209 48.7914 47.3209 48.7914 48.4249C48.7914 48.8809 48.7494 49.2529 48.6654 49.5409H42.8154C42.8994 50.1409 43.1634 50.6089 43.6074 50.9449C44.0514 51.2689 44.5974 51.4309 45.2454 51.4309C46.1574 51.4309 46.9194 51.1849 47.5314 50.6929ZM44.8674 46.3909C43.6914 46.3909 42.9834 46.9789 42.7434 48.1549H46.7214C46.7334 47.6509 46.5714 47.2309 46.2354 46.8949C45.8994 46.5589 45.4434 46.3909 44.8674 46.3909ZM54.2566 51.2329C54.4606 51.1009 54.5626 50.9149 54.5626 50.6749C54.5626 50.4349 54.4126 50.2429 54.1126 50.0989C53.8126 49.9429 53.4466 49.8109 53.0146 49.7029C52.5946 49.5829 52.1686 49.4449 51.7366 49.2889C51.3046 49.1209 50.9386 48.8569 50.6386 48.4969C50.3386 48.1369 50.1886 47.6809 50.1886 47.1289C50.1886 46.3609 50.4646 45.7609 51.0166 45.3289C51.5806 44.8849 52.2946 44.6629 53.1586 44.6629C54.4786 44.6629 55.5046 45.0049 56.2366 45.6889L55.4626 47.1649C54.8026 46.6489 54.0706 46.3909 53.2666 46.3909C52.9666 46.3909 52.7206 46.4629 52.5286 46.6069C52.3486 46.7389 52.2586 46.9009 52.2586 47.0929C52.2586 47.3329 52.4086 47.5309 52.7086 47.6869C53.0086 47.8429 53.3686 47.9749 53.7886 48.0829C54.2206 48.1909 54.6526 48.3229 55.0846 48.4789C55.5166 48.6349 55.8826 48.8929 56.1826 49.2529C56.4826 49.6009 56.6326 50.0389 56.6326 50.5669C56.6326 51.3589 56.3326 51.9889 55.7326 52.4569C55.1446 52.9249 54.3526 53.1589 53.3566 53.1589C52.6606 53.1589 51.9706 53.0089 51.2866 52.7089C50.6146 52.4089 50.1766 52.0969 49.9726 51.7729L50.9806 50.4229C51.2206 50.6869 51.5986 50.9209 52.1146 51.1249C52.6306 51.3289 53.0926 51.4309 53.5006 51.4309C53.8126 51.4309 54.0646 51.3649 54.2566 51.2329ZM58.2767 49.8829V42.6109H60.3467V44.8609H62.9567V46.8049H60.3467V49.7569C60.3467 50.7289 60.6707 51.2149 61.3187 51.2149C61.7267 51.2149 62.1407 51.0589 62.5607 50.7469L63.1907 52.3489C62.5427 52.8769 61.7447 53.1409 60.7967 53.1409C59.9087 53.1409 59.2667 52.8709 58.8707 52.3309C58.4747 51.7789 58.2767 50.9629 58.2767 49.8829ZM69.4964 52.9609V41.0609H69.6834C69.9554 41.0609 70.4087 41.0553 71.0434 41.0439C71.678 41.0213 72.1767 41.0099 72.5394 41.0099C73.6954 41.0099 74.7097 41.1686 75.5824 41.4859C76.455 41.7919 77.152 42.2226 77.6734 42.7779C78.1947 43.3219 78.58 43.9396 78.8294 44.6309C79.09 45.3109 79.2204 46.0476 79.2204 46.8409C79.2204 48.6316 78.6254 50.1049 77.4354 51.2609C76.2567 52.4169 74.5794 52.9949 72.4034 52.9949C72.12 52.9949 71.6724 52.9893 71.0604 52.9779C70.4484 52.9666 69.978 52.9609 69.6494 52.9609H69.4964ZM72.5054 41.8939C72.2447 41.8939 72.001 41.8996 71.7744 41.9109C71.5477 41.9109 71.304 41.9166 71.0434 41.9279C70.794 41.9393 70.59 41.9449 70.4314 41.9449V52.0769C71.7234 52.0996 72.392 52.1109 72.4374 52.1109C74.2847 52.1109 75.7127 51.6236 76.7214 50.6489C77.73 49.6629 78.2344 48.3936 78.2344 46.8409C78.2344 45.3789 77.7527 44.1889 76.7894 43.2709C75.826 42.3529 74.398 41.8939 72.5054 41.8939ZM87.4555 51.3459L87.7445 52.0259C87.0532 52.7513 86.1125 53.1139 84.9225 53.1139C83.7099 53.1139 82.7295 52.7513 81.9815 52.0259C81.2335 51.3006 80.8595 50.3373 80.8595 49.1359C80.8595 47.9799 81.1995 47.0279 81.8795 46.2799C82.5709 45.5319 83.5229 45.1579 84.7355 45.1579C85.7329 45.1579 86.5602 45.4753 87.2175 46.1099C87.8749 46.7446 88.2035 47.5776 88.2035 48.6089C88.2035 48.8809 88.1865 49.1189 88.1525 49.3229H81.8455C81.8795 50.2409 82.1799 50.9663 82.7465 51.4989C83.3132 52.0203 84.0555 52.2809 84.9735 52.2809C86.0275 52.2809 86.8549 51.9693 87.4555 51.3459ZM84.6505 45.9909C83.8232 45.9909 83.1602 46.2346 82.6615 46.7219C82.1629 47.1979 81.8739 47.8213 81.7945 48.5919H87.3025C87.2912 47.7873 87.0475 47.1526 86.5715 46.6879C86.0955 46.2233 85.4552 45.9909 84.6505 45.9909ZM94.2796 50.9549C94.2796 50.6036 94.1323 50.3203 93.8376 50.1049C93.5543 49.8896 93.2029 49.7196 92.7836 49.5949C92.3756 49.4703 91.9619 49.3343 91.5426 49.1869C91.1233 49.0283 90.7663 48.7846 90.4716 48.4559C90.1883 48.1273 90.0466 47.7023 90.0466 47.1809C90.0466 46.5689 90.2733 46.0816 90.7266 45.7189C91.1799 45.3449 91.7749 45.1579 92.5116 45.1579C93.5656 45.1579 94.3646 45.4413 94.9086 46.0079L94.5346 46.6709C94.0133 46.1836 93.3446 45.9399 92.5286 45.9399C92.0639 45.9399 91.6899 46.0589 91.4066 46.2969C91.1233 46.5349 90.9816 46.8239 90.9816 47.1639C90.9816 47.5379 91.1233 47.8383 91.4066 48.0649C91.7013 48.2916 92.0526 48.4729 92.4606 48.6089C92.8799 48.7336 93.2993 48.8696 93.7186 49.0169C94.1379 49.1643 94.4893 49.3966 94.7726 49.7139C95.0673 50.0199 95.2146 50.4223 95.2146 50.9209C95.2146 51.6349 94.9483 52.1789 94.4156 52.5529C93.8943 52.9269 93.2426 53.1139 92.4606 53.1139C91.9393 53.1139 91.4179 53.0006 90.8966 52.7739C90.3753 52.5473 90.0239 52.2923 89.8426 52.0089L90.3356 51.4309C90.5396 51.6916 90.8626 51.9069 91.3046 52.0769C91.7466 52.2469 92.1659 52.3319 92.5626 52.3319C93.0386 52.3319 93.4409 52.2129 93.7696 51.9749C94.1096 51.7369 94.2796 51.3969 94.2796 50.9549ZM97.8491 52.9609V45.3109H98.7331V52.9609H97.8491ZM97.6961 42.3359C97.6961 42.1659 97.7584 42.0299 97.8831 41.9279C98.0077 41.8259 98.1551 41.7749 98.3251 41.7749C98.4724 41.7749 98.6027 41.8316 98.7161 41.9449C98.8407 42.0469 98.9031 42.1773 98.9031 42.3359C98.9031 42.5286 98.8464 42.6816 98.7331 42.7949C98.6197 42.9083 98.4837 42.9649 98.3251 42.9649C98.1437 42.9649 97.9907 42.9083 97.8661 42.7949C97.7527 42.6816 97.6961 42.5286 97.6961 42.3359ZM100.752 54.0829C100.752 53.4936 100.956 53.0063 101.364 52.6209C101.783 52.2243 102.361 51.9466 103.098 51.7879C102.928 51.5839 102.843 51.3403 102.843 51.0569C102.843 50.7623 102.939 50.5073 103.132 50.2919C102.633 50.0766 102.242 49.7536 101.959 49.3229C101.675 48.8923 101.534 48.4049 101.534 47.8609C101.534 47.0789 101.811 46.4329 102.367 45.9229C102.922 45.4129 103.653 45.1579 104.56 45.1579C105.285 45.1579 105.925 45.3506 106.481 45.7359H106.498L108.674 45.1579V45.9909L107.127 46.3819C107.433 46.8353 107.586 47.3283 107.586 47.8609C107.586 48.6316 107.302 49.2776 106.736 49.7989C106.18 50.3089 105.455 50.5639 104.56 50.5639C104.265 50.5639 104.01 50.5413 103.795 50.4959C103.693 50.6433 103.642 50.8303 103.642 51.0569C103.642 51.3063 103.715 51.5103 103.863 51.6689C104.18 51.6463 104.418 51.6349 104.577 51.6349C105.733 51.6349 106.656 51.8503 107.348 52.2809C108.05 52.7003 108.402 53.3009 108.402 54.0829C108.402 54.8536 108.05 55.4486 107.348 55.8679C106.645 56.2873 105.721 56.4969 104.577 56.4969C103.421 56.4969 102.491 56.2873 101.789 55.8679C101.097 55.4599 100.752 54.8649 100.752 54.0829ZM101.653 54.0829C101.653 54.5816 101.913 54.9726 102.435 55.2559C102.967 55.5506 103.681 55.6979 104.577 55.6979C105.472 55.6979 106.18 55.5506 106.702 55.2559C107.234 54.9726 107.501 54.5816 107.501 54.0829C107.501 53.5843 107.234 53.1876 106.702 52.8929C106.18 52.5869 105.472 52.4339 104.577 52.4339C103.693 52.4339 102.984 52.5813 102.452 52.8759C101.919 53.1706 101.653 53.5729 101.653 54.0829ZM103.03 46.5009C102.633 46.8636 102.435 47.3169 102.435 47.8609C102.435 48.4049 102.633 48.8583 103.03 49.2209C103.426 49.5836 103.936 49.7649 104.56 49.7649C105.183 49.7649 105.693 49.5836 106.09 49.2209C106.486 48.8583 106.685 48.4049 106.685 47.8609C106.685 47.3169 106.481 46.8636 106.073 46.5009C105.676 46.1383 105.172 45.9569 104.56 45.9569C103.948 45.9569 103.438 46.1383 103.03 46.5009ZM110.191 52.9609V45.3109H111.075V46.3819C111.381 46.0419 111.783 45.7586 112.282 45.5319C112.792 45.2939 113.307 45.1749 113.829 45.1749C114.883 45.1749 115.676 45.4526 116.209 46.0079C116.753 46.5519 117.025 47.4133 117.025 48.5919V52.9609H116.141V48.7619C116.141 46.9259 115.302 46.0079 113.625 46.0079C113.126 46.0079 112.644 46.1213 112.18 46.3479C111.715 46.5746 111.347 46.8523 111.075 47.1809V52.9609H110.191Z" fill="#1A1A1A"/>
<path d="M31.064 25.1394H35.754C36.678 25.1394 37.3827 25.4008 37.868 25.9234C38.3533 26.4368 38.596 27.1041 38.596 27.9254C38.596 28.4201 38.5073 28.8774 38.33 29.2974C38.162 29.7174 37.8493 30.0814 37.392 30.3894C36.944 30.6881 36.384 30.8374 35.712 30.8374H32.338V35.0234H31.064V25.1394ZM32.338 29.6614H35.516C36.0573 29.6614 36.4867 29.5121 36.804 29.2134C37.1307 28.9148 37.294 28.4761 37.294 27.8974C37.294 27.3468 37.1353 26.9408 36.818 26.6794C36.5007 26.4088 36.0713 26.2734 35.53 26.2734H32.338V29.6614ZM43.594 31.0754V30.8514C43.594 30.6741 43.5893 30.5294 43.58 30.4174C43.5707 30.3054 43.538 30.1561 43.482 29.9694C43.4353 29.7828 43.3653 29.6334 43.272 29.5214C43.1787 29.4001 43.034 29.2974 42.838 29.2134C42.642 29.1201 42.404 29.0734 42.124 29.0734C41.6667 29.0734 41.312 29.1854 41.06 29.4094C40.8173 29.6334 40.696 29.9508 40.696 30.3614V30.4594L39.534 30.3894C39.534 30.2868 39.5433 30.1701 39.562 30.0394C39.59 29.8994 39.6553 29.7174 39.758 29.4934C39.8607 29.2694 39.996 29.0688 40.164 28.8914C40.332 28.7141 40.5793 28.5601 40.906 28.4294C41.242 28.2894 41.6293 28.2194 42.068 28.2194C42.7307 28.2194 43.2813 28.3501 43.72 28.6114C44.1493 28.8541 44.42 29.1481 44.532 29.4934C44.6533 29.8294 44.714 30.3334 44.714 31.0054V33.3294C44.714 33.4974 44.7187 33.6281 44.728 33.7214C44.7467 33.8054 44.7933 33.8894 44.868 33.9734C44.952 34.0574 45.0687 34.0994 45.218 34.0994C45.274 34.0994 45.386 34.0808 45.554 34.0434V34.9814C45.302 35.0654 45.064 35.1074 44.84 35.1074C44.532 35.1074 44.2987 35.0514 44.14 34.9394C44.0187 34.8461 43.916 34.7154 43.832 34.5474C43.748 34.3794 43.7013 34.2394 43.692 34.1274C43.0293 34.8461 42.278 35.2054 41.438 35.2054C40.7753 35.2054 40.234 35.0328 39.814 34.6874C39.4033 34.3328 39.198 33.8754 39.198 33.3154C39.198 32.7274 39.436 32.2514 39.912 31.8874C40.4627 31.4768 41.354 31.2294 42.586 31.1454L43.594 31.0754ZM43.608 31.8034C42.2547 32.0181 41.466 32.1768 41.242 32.2794C40.7007 32.4941 40.43 32.8301 40.43 33.2874C40.43 33.5581 40.5327 33.7914 40.738 33.9874C40.9527 34.1741 41.2653 34.2674 41.676 34.2674C41.8627 34.2674 42.0493 34.2441 42.236 34.1974C42.432 34.1508 42.6373 34.0668 42.852 33.9454C43.076 33.8148 43.258 33.6094 43.398 33.3294C43.538 33.0494 43.608 32.7134 43.608 32.3214V31.8034ZM50.482 31.5234C51.49 31.7008 51.994 32.2701 51.994 33.2314C51.994 33.8661 51.7513 34.3608 51.266 34.7154C50.79 35.0608 50.0993 35.2334 49.194 35.2334C48.3353 35.2334 47.6447 35.0701 47.122 34.7434C46.5993 34.4168 46.282 33.8288 46.17 32.9794L47.262 32.8114C47.318 33.0634 47.374 33.2594 47.43 33.3994C47.486 33.5301 47.5793 33.6841 47.71 33.8614C47.8407 34.0294 48.0273 34.1508 48.27 34.2254C48.522 34.3001 48.8347 34.3374 49.208 34.3374C50.3 34.3374 50.846 33.9688 50.846 33.2314C50.846 32.8394 50.7247 32.5501 50.482 32.3634C50.2487 32.1768 49.8473 32.0834 49.278 32.0834H48.438V31.1594H49.138C50.1273 31.1594 50.622 30.8001 50.622 30.0814C50.622 29.8108 50.5007 29.5774 50.258 29.3814C50.0247 29.1854 49.6747 29.0874 49.208 29.0874C48.8067 29.0874 48.438 29.1854 48.102 29.3814C47.766 29.5774 47.556 29.9088 47.472 30.3754L46.38 30.2354C46.4453 29.6008 46.7347 29.1061 47.248 28.7514C47.7707 28.3968 48.4473 28.2194 49.278 28.2194C49.67 28.2194 50.0387 28.2661 50.384 28.3594C50.7293 28.4434 51.0467 28.6254 51.336 28.9054C51.6253 29.1761 51.77 29.5261 51.77 29.9554C51.77 30.3381 51.672 30.6601 51.476 30.9214C51.2893 31.1734 50.958 31.3741 50.482 31.5234ZM53.3595 28.4294H54.4515V29.3674C54.6849 29.0781 55.0069 28.8168 55.4175 28.5834C55.8282 28.3408 56.2902 28.2194 56.8035 28.2194C57.5782 28.2194 58.2642 28.5228 58.8615 29.1294C59.4682 29.7361 59.7715 30.6088 59.7715 31.7474C59.7715 32.1581 59.7155 32.5548 59.6035 32.9374C59.5009 33.3201 59.3375 33.6934 59.1135 34.0574C58.8895 34.4121 58.5675 34.6968 58.1475 34.9114C57.7275 35.1261 57.2375 35.2334 56.6775 35.2334C56.2295 35.2334 55.8049 35.1494 55.4035 34.9814C55.0022 34.8134 54.6849 34.5708 54.4515 34.2534V38.1594H53.3595V28.4294ZM54.4515 31.8454C54.4515 32.5921 54.6335 33.1801 54.9975 33.6094C55.3709 34.0388 55.8795 34.2534 56.5235 34.2534C57.1862 34.2534 57.6902 34.0248 58.0355 33.5674C58.3902 33.1101 58.5675 32.4894 58.5675 31.7054C58.5675 30.8841 58.3669 30.2728 57.9655 29.8714C57.5735 29.4608 57.1162 29.2554 56.5935 29.2554C55.9495 29.2554 55.4315 29.4841 55.0395 29.9414C54.6475 30.3988 54.4515 31.0334 54.4515 31.8454ZM65.1409 31.0754V30.8514C65.1409 30.6741 65.1362 30.5294 65.1269 30.4174C65.1175 30.3054 65.0849 30.1561 65.0289 29.9694C64.9822 29.7828 64.9122 29.6334 64.8189 29.5214C64.7255 29.4001 64.5809 29.2974 64.3849 29.2134C64.1889 29.1201 63.9509 29.0734 63.6709 29.0734C63.2135 29.0734 62.8589 29.1854 62.6069 29.4094C62.3642 29.6334 62.2429 29.9508 62.2429 30.3614V30.4594L61.0809 30.3894C61.0809 30.2868 61.0902 30.1701 61.1089 30.0394C61.1369 29.8994 61.2022 29.7174 61.3049 29.4934C61.4075 29.2694 61.5429 29.0688 61.7109 28.8914C61.8789 28.7141 62.1262 28.5601 62.4529 28.4294C62.7889 28.2894 63.1762 28.2194 63.6149 28.2194C64.2775 28.2194 64.8282 28.3501 65.2669 28.6114C65.6962 28.8541 65.9669 29.1481 66.0789 29.4934C66.2002 29.8294 66.2609 30.3334 66.2609 31.0054V33.3294C66.2609 33.4974 66.2655 33.6281 66.2749 33.7214C66.2935 33.8054 66.3402 33.8894 66.4149 33.9734C66.4989 34.0574 66.6155 34.0994 66.7649 34.0994C66.8209 34.0994 66.9329 34.0808 67.1009 34.0434V34.9814C66.8489 35.0654 66.6109 35.1074 66.3869 35.1074C66.0789 35.1074 65.8455 35.0514 65.6869 34.9394C65.5655 34.8461 65.4629 34.7154 65.3789 34.5474C65.2949 34.3794 65.2482 34.2394 65.2389 34.1274C64.5762 34.8461 63.8249 35.2054 62.9849 35.2054C62.3222 35.2054 61.7809 35.0328 61.3609 34.6874C60.9502 34.3328 60.7449 33.8754 60.7449 33.3154C60.7449 32.7274 60.9829 32.2514 61.4589 31.8874C62.0095 31.4768 62.9009 31.2294 64.1329 31.1454L65.1409 31.0754ZM65.1549 31.8034C63.8015 32.0181 63.0129 32.1768 62.7889 32.2794C62.2475 32.4941 61.9769 32.8301 61.9769 33.2874C61.9769 33.5581 62.0795 33.7914 62.2849 33.9874C62.4995 34.1741 62.8122 34.2674 63.2229 34.2674C63.4095 34.2674 63.5962 34.2441 63.7829 34.1974C63.9789 34.1508 64.1842 34.0668 64.3989 33.9454C64.6229 33.8148 64.8049 33.6094 64.9449 33.3294C65.0849 33.0494 65.1549 32.7134 65.1549 32.3214V31.8034ZM72.9809 25.1394H74.1009C74.1009 25.7368 73.9282 26.1754 73.5829 26.4554C73.2469 26.7354 72.7149 26.9081 71.9869 26.9734C71.0069 27.0574 70.2929 27.3094 69.8449 27.7294C69.3969 28.1401 69.1215 28.7934 69.0189 29.6894C69.3455 29.2414 69.6955 28.9194 70.0689 28.7234C70.4422 28.5274 70.9089 28.4294 71.4689 28.4294C72.4022 28.4294 73.1209 28.7328 73.6249 29.3394C74.1289 29.9461 74.3809 30.7581 74.3809 31.7754C74.3809 32.1954 74.3202 32.6014 74.1989 32.9934C74.0869 33.3854 73.9095 33.7541 73.6669 34.0994C73.4242 34.4448 73.0882 34.7201 72.6589 34.9254C72.2389 35.1308 71.7535 35.2334 71.2029 35.2334C70.1295 35.2334 69.3175 34.8928 68.7669 34.2114C68.2162 33.5301 67.9409 32.6154 67.9409 31.4674C67.9409 30.0954 68.0762 29.0128 68.3469 28.2194C68.6269 27.4168 69.0562 26.8334 69.6349 26.4694C70.2135 26.1054 71.0069 25.8908 72.0149 25.8254C72.3229 25.8068 72.5609 25.7508 72.7289 25.6574C72.8969 25.5548 72.9809 25.3821 72.9809 25.1394ZM73.1769 31.7054C73.1769 31.0521 72.9995 30.4874 72.6449 30.0114C72.2995 29.5354 71.8422 29.2974 71.2729 29.2974C70.6382 29.2974 70.1389 29.5401 69.7749 30.0254C69.4109 30.5014 69.2289 31.0754 69.2289 31.7474C69.2289 32.5594 69.4155 33.1941 69.7889 33.6514C70.1622 34.1088 70.6522 34.3374 71.2589 34.3374C71.7909 34.3374 72.2435 34.1088 72.6169 33.6514C72.9902 33.1848 73.1769 32.5361 73.1769 31.7054ZM75.4995 31.7334C75.4995 31.4814 75.5228 31.2248 75.5695 30.9634C75.6161 30.6928 75.7095 30.3894 75.8495 30.0534C75.9988 29.7081 76.1901 29.4048 76.4235 29.1434C76.6568 28.8821 76.9788 28.6628 77.3895 28.4854C77.8095 28.3081 78.2901 28.2194 78.8315 28.2194C79.7555 28.2194 80.5068 28.5134 81.0855 29.1014C81.6735 29.6801 81.9675 30.5341 81.9675 31.6634C81.9675 32.8021 81.6595 33.6841 81.0435 34.3094C80.4368 34.9254 79.6668 35.2334 78.7335 35.2334C77.7815 35.2334 77.0021 34.9254 76.3955 34.3094C75.7981 33.6934 75.4995 32.8348 75.4995 31.7334ZM76.7035 31.7894C76.7035 31.9761 76.7128 32.1674 76.7315 32.3634C76.7595 32.5501 76.8155 32.7694 76.8995 33.0214C76.9835 33.2734 77.0955 33.4928 77.2355 33.6794C77.3755 33.8568 77.5715 34.0108 77.8235 34.1414C78.0848 34.2721 78.3835 34.3374 78.7195 34.3374C79.3821 34.3374 79.8861 34.0948 80.2315 33.6094C80.5861 33.1241 80.7635 32.4474 80.7635 31.5794C80.7635 30.9074 80.6095 30.3288 80.3015 29.8434C79.9935 29.3581 79.4988 29.1154 78.8175 29.1154C78.4255 29.1154 78.0848 29.1994 77.7955 29.3674C77.5061 29.5354 77.2915 29.7221 77.1515 29.9274C77.0208 30.1328 76.9181 30.3848 76.8435 30.6834C76.7688 30.9728 76.7268 31.1921 76.7175 31.3414C76.7081 31.4814 76.7035 31.6308 76.7035 31.7894ZM82.2995 28.4294H87.7875V29.3534H85.5895V35.0234H84.4975V29.3534H82.2995V28.4294ZM92.553 31.0754V30.8514C92.553 30.6741 92.5483 30.5294 92.539 30.4174C92.5297 30.3054 92.497 30.1561 92.441 29.9694C92.3943 29.7828 92.3243 29.6334 92.231 29.5214C92.1377 29.4001 91.993 29.2974 91.797 29.2134C91.601 29.1201 91.363 29.0734 91.083 29.0734C90.6257 29.0734 90.271 29.1854 90.019 29.4094C89.7763 29.6334 89.655 29.9508 89.655 30.3614V30.4594L88.493 30.3894C88.493 30.2868 88.5023 30.1701 88.521 30.0394C88.549 29.8994 88.6143 29.7174 88.717 29.4934C88.8197 29.2694 88.955 29.0688 89.123 28.8914C89.291 28.7141 89.5383 28.5601 89.865 28.4294C90.201 28.2894 90.5883 28.2194 91.027 28.2194C91.6897 28.2194 92.2403 28.3501 92.679 28.6114C93.1083 28.8541 93.379 29.1481 93.491 29.4934C93.6123 29.8294 93.673 30.3334 93.673 31.0054V33.3294C93.673 33.4974 93.6777 33.6281 93.687 33.7214C93.7057 33.8054 93.7523 33.8894 93.827 33.9734C93.911 34.0574 94.0277 34.0994 94.177 34.0994C94.233 34.0994 94.345 34.0808 94.513 34.0434V34.9814C94.261 35.0654 94.023 35.1074 93.799 35.1074C93.491 35.1074 93.2577 35.0514 93.099 34.9394C92.9777 34.8461 92.875 34.7154 92.791 34.5474C92.707 34.3794 92.6603 34.2394 92.651 34.1274C91.9883 34.8461 91.237 35.2054 90.397 35.2054C89.7343 35.2054 89.193 35.0328 88.773 34.6874C88.3623 34.3328 88.157 33.8754 88.157 33.3154C88.157 32.7274 88.395 32.2514 88.871 31.8874C89.4217 31.4768 90.313 31.2294 91.545 31.1454L92.553 31.0754ZM92.567 31.8034C91.2137 32.0181 90.425 32.1768 90.201 32.2794C89.6597 32.4941 89.389 32.8301 89.389 33.2874C89.389 33.5581 89.4917 33.7914 89.697 33.9874C89.9117 34.1741 90.2243 34.2674 90.635 34.2674C90.8217 34.2674 91.0083 34.2441 91.195 34.1974C91.391 34.1508 91.5963 34.0668 91.811 33.9454C92.035 33.8148 92.217 33.6094 92.357 33.3294C92.497 33.0494 92.567 32.7134 92.567 32.3214V31.8034ZM95.633 28.4294H96.725V31.1034H100.113V28.4294H101.205V35.0234H100.113V32.0274H96.725V35.0234H95.633V28.4294ZM102.693 31.7334C102.693 31.4814 102.716 31.2248 102.763 30.9634C102.809 30.6928 102.903 30.3894 103.043 30.0534C103.192 29.7081 103.383 29.4048 103.617 29.1434C103.85 28.8821 104.172 28.6628 104.583 28.4854C105.003 28.3081 105.483 28.2194 106.025 28.2194C106.949 28.2194 107.7 28.5134 108.279 29.1014C108.867 29.6801 109.161 30.5341 109.161 31.6634C109.161 32.8021 108.853 33.6841 108.237 34.3094C107.63 34.9254 106.86 35.2334 105.927 35.2334C104.975 35.2334 104.195 34.9254 103.589 34.3094C102.991 33.6934 102.693 32.8348 102.693 31.7334ZM103.897 31.7894C103.897 31.9761 103.906 32.1674 103.925 32.3634C103.953 32.5501 104.009 32.7694 104.093 33.0214C104.177 33.2734 104.289 33.4928 104.429 33.6794C104.569 33.8568 104.765 34.0108 105.017 34.1414C105.278 34.2721 105.577 34.3374 105.913 34.3374C106.575 34.3374 107.079 34.0948 107.425 33.6094C107.779 33.1241 107.957 32.4474 107.957 31.5794C107.957 30.9074 107.803 30.3288 107.495 29.8434C107.187 29.3581 106.692 29.1154 106.011 29.1154C105.619 29.1154 105.278 29.1994 104.989 29.3674C104.699 29.5354 104.485 29.7221 104.345 29.9274C104.214 30.1328 104.111 30.3848 104.037 30.6834C103.962 30.9728 103.92 31.1921 103.911 31.3414C103.901 31.4814 103.897 31.6308 103.897 31.7894Z" fill="#929292"/>
<defs>
<filter id="filter0_d_907_1334" x="113.245" y="0.240234" width="79.5107" height="79.3984" filterUnits="userSpaceOnUse" color-interpolation-filters="sRGB">
<feFlood flood-opacity="0" result="BackgroundImageFix"/>
<feColorMatrix in="SourceAlpha" type="matrix" values="0 0 0 0 0 0 0 0 0 0 0 0 0 0 0 0 0 0 127 0" result="hardAlpha"/>
<feMorphology radius="2" operator="dilate" in="SourceAlpha" result="effect1_dropShadow_907_1334"/>
<feOffset dy="4"/>
<feGaussianBlur stdDeviation="10"/>
<feColorMatrix type="matrix" values="0 0 0 0 0.279167 0 0 0 0 0.279167 0 0 0 0 0.279167 0 0 0 0.25 0"/>
<feBlend mode="normal" in2="BackgroundImageFix" result="effect1_dropShadow_907_1334"/>
<feBlend mode="normal" in="SourceGraphic" in2="effect1_dropShadow_907_1334" result="shape"/>
</filter>
</defs>
</svg>
