<svg width="80" height="80" viewBox="0 0 80 80" fill="none" xmlns="http://www.w3.org/2000/svg">
<path d="M37.0464 2.59787C37.5345 -0.865954 42.4655 -0.86596 42.9536 2.59787L45.2312 18.7645C45.5685 21.158 48.4007 22.2035 50.1761 20.5898L62.1672 9.69029C64.7364 7.35498 68.5138 10.5696 66.6923 13.5412L58.1908 27.4104C56.9321 29.4638 58.4391 32.111 60.8219 32.0322L76.9157 31.4998C80.3639 31.3857 81.2202 36.3108 77.9414 37.3997L62.6387 42.4819C60.373 43.2344 59.8496 46.2447 61.7249 47.7377L74.3909 57.8215C77.1047 59.9821 74.6391 64.3131 71.4373 63.0098L56.4937 56.927C54.2812 56.0264 51.9723 57.9913 52.4626 60.3575L55.7742 76.3392C56.4838 79.7634 51.8501 81.4739 50.2234 78.3882L42.6311 63.9866C41.507 61.8544 38.493 61.8544 37.3689 63.9866L29.7766 78.3882C28.1499 81.4738 23.5162 79.7634 24.2258 76.3392L27.5374 60.3575C28.0277 57.9913 25.7188 56.0264 23.5063 56.927L8.56267 63.0098C5.36087 64.3131 2.89532 59.9821 5.60911 57.8215L18.2751 47.7377C20.1504 46.2447 19.627 43.2344 17.3613 42.4819L2.05858 37.3997C-1.22016 36.3108 -0.36389 31.3857 3.08433 31.4998L19.1781 32.0322C21.5609 32.111 23.0679 29.4638 21.8092 27.4104L13.3077 13.5412C11.4862 10.5696 15.2636 7.35498 17.8328 9.69028L29.8239 20.5898C31.5993 22.2035 34.4315 21.158 34.7688 18.7645L37.0464 2.59787Z" fill="#1D1D1D"/>
</svg>
