<svg width="60" height="60" viewBox="0 0 60 60" fill="none" xmlns="http://www.w3.org/2000/svg">
<g clip-path="url(#clip0_901_1126)">
<path d="M41.25 0C30.735 0 22.5 4.9425 22.5 11.25V17.7175C21.2553 17.5718 20.0032 17.4992 18.75 17.5C8.235 17.5 0 22.4425 0 28.75V48.75C0 55.0575 8.235 60 18.75 60C27.29 60 34.3275 56.74 36.6675 52.135C38.16 52.3525 39.685 52.5 41.25 52.5C51.765 52.5 60 47.5575 60 41.25V11.25C60 4.9425 51.765 0 41.25 0ZM41.25 5C49.12 5 55 8.3 55 11.25C55 14.2 49.12 17.5 41.25 17.5C33.38 17.5 27.5 14.2 27.5 11.25C27.5 8.3 33.38 5 41.25 5ZM18.75 22.5C26.62 22.5 32.5 25.8 32.5 28.75C32.5 31.7 26.62 35 18.75 35C10.88 35 5 31.7 5 28.75C5 25.8 10.88 22.5 18.75 22.5ZM5 36.455C8.4 38.6425 13.2575 40 18.75 40C24.2425 40 29.1 38.6425 32.5 36.455V38.75C32.5 41.7 26.62 45 18.75 45C10.88 45 5 41.7 5 38.75V36.455ZM18.75 55C10.88 55 5 51.7 5 48.75V46.455C8.4 48.6425 13.2575 50 18.75 50C24.2425 50 29.1 48.6425 32.5 46.455V48.75C32.5 51.7 26.62 55 18.75 55ZM41.25 47.5C39.965 47.5 38.72 47.3825 37.5 47.21V42.26C38.73 42.405 39.975 42.5 41.25 42.5C46.7425 42.5 51.6 41.1425 55 38.955V41.25C55 44.2 49.12 47.5 41.25 47.5ZM41.25 37.5C39.965 37.5 38.72 37.3825 37.5 37.21V32.26C38.73 32.405 39.975 32.5 41.25 32.5C46.7425 32.5 51.6 31.1425 55 28.955V31.25C55 34.2 49.12 37.5 41.25 37.5ZM41.25 27.5C39.895 27.5 38.585 27.3725 37.305 27.1825C36.81 24.965 35.2825 22.9725 33.0025 21.38C35.4825 22.0925 38.2675 22.5025 41.25 22.5025C46.7425 22.5025 51.6 21.145 55 18.9575V21.2525C55 24.2025 49.12 27.5025 41.25 27.5025V27.5Z" fill="#1D1D1D"/>
</g>
<defs>
<clipPath id="clip0_901_1126">
<rect width="60" height="60" fill="white"/>
</clipPath>
</defs>
</svg>
