<svg width="60" height="60" viewBox="0 0 60 60" fill="none" xmlns="http://www.w3.org/2000/svg">
<g clip-path="url(#clip0_901_1364)">
<path d="M46.4525 5.35011L30.79 0.127614C30.2772 -0.043189 29.7228 -0.043189 29.21 0.127614L13.5475 5.35011C11.0573 6.17732 8.89104 7.76826 7.35661 9.89689C5.82218 12.0255 4.9976 14.5836 5.00001 17.2076V30.0001C5.00001 48.9076 28 59.3501 28.985 59.7851C29.3046 59.9271 29.6503 60.0004 30 60.0004C30.3497 60.0004 30.6955 59.9271 31.015 59.7851C32 59.3501 55 48.9076 55 30.0001V17.2076C55.0024 14.5836 54.1778 12.0255 52.6434 9.89689C51.109 7.76826 48.9427 6.17732 46.4525 5.35011ZM50 30.0001C50 43.6376 34.2025 52.5826 30 54.7226C25.7925 52.5901 10 43.6726 10 30.0001V17.2076C10.0002 15.6333 10.4957 14.099 11.4164 12.822C12.3371 11.545 13.6364 10.5901 15.13 10.0926L30 5.13511L44.87 10.0926C46.3636 10.5901 47.6629 11.545 48.5836 12.822C49.5043 14.099 49.9999 15.6333 50 17.2076V30.0001Z" fill="#1D1D1D"/>
<path d="M38.25 20.7502L27.78 31.2502L22.17 25.4002C21.9449 25.154 21.6727 24.9554 21.3697 24.8161C21.0666 24.6767 20.7387 24.5994 20.4052 24.5887C20.0718 24.578 19.7396 24.6342 19.4283 24.7539C19.1169 24.8736 18.8326 25.0544 18.5922 25.2856C18.3518 25.5169 18.16 25.7939 18.0283 26.1004C17.8966 26.4069 17.8276 26.7366 17.8253 27.0702C17.823 27.4038 17.8875 27.7344 18.0149 28.0427C18.1424 28.351 18.3303 28.6306 18.5675 28.8652L24.3325 34.8652C24.7624 35.3296 25.2821 35.7019 25.86 35.9597C26.438 36.2176 27.0622 36.3555 27.695 36.3652H27.7775C28.3976 36.3672 29.012 36.2461 29.5849 36.0088C30.1579 35.7714 30.678 35.4227 31.115 34.9827L41.795 24.3027C42.0283 24.0699 42.2134 23.7935 42.3398 23.4892C42.4662 23.1849 42.5315 22.8586 42.5318 22.5291C42.5322 22.1996 42.4676 21.8732 42.3418 21.5686C42.2161 21.264 42.0315 20.9872 41.7987 20.7539C41.566 20.5207 41.2896 20.3355 40.9852 20.2091C40.6809 20.0827 40.3547 20.0174 40.0252 20.0171C39.6956 20.0167 39.3692 20.0813 39.0647 20.2071C38.7601 20.3329 38.4833 20.5174 38.25 20.7502Z" fill="#1D1D1D"/>
</g>
<defs>
<clipPath id="clip0_901_1364">
<rect width="60" height="60" fill="white"/>
</clipPath>
</defs>
</svg>
