<svg width="60" height="60" viewBox="0 0 60 60" fill="none" xmlns="http://www.w3.org/2000/svg">
<g clip-path="url(#clip0_901_1263)">
<path d="M57.9975 28.9976C57.0718 27.7514 55.8662 26.7403 54.4778 26.0459C53.0895 25.3516 51.5573 24.9933 50.005 25.0001H30.0125V17.5176H57.5C58.163 17.5176 58.7989 17.2542 59.2678 16.7853C59.7366 16.3165 60 15.6806 60 15.0176C60 14.3545 59.7366 13.7186 59.2678 13.2498C58.7989 12.7809 58.163 12.5176 57.5 12.5176H30.0125V8.96505L57.47 7.51505C58.1324 7.48024 58.7538 7.18373 59.1975 6.69074C59.6413 6.19776 59.8711 5.54868 59.8362 4.8863C59.8014 4.22392 59.5049 3.6025 59.0119 3.15874C58.5189 2.71499 57.8699 2.48524 57.2075 2.52005L9.86499 5.02005C9.21038 5.04887 8.59324 5.33355 8.14641 5.81281C7.69958 6.29208 7.45877 6.92761 7.47581 7.58264C7.49285 8.23767 7.76637 8.85983 8.23752 9.31521C8.70866 9.7706 9.33976 10.0228 9.99499 10.0176H10.13L12.515 9.89255V12.5201H9.99749C9.33445 12.5201 8.69857 12.7834 8.22973 13.2523C7.76089 13.7211 7.49749 14.357 7.49749 15.0201C7.49749 15.6831 7.76089 16.319 8.22973 16.7878C8.69857 17.2567 9.33445 17.5201 9.99749 17.5201H12.515V25.0026H10.0175C6.84249 25.0026 3.92999 26.4576 2.02749 28.9976C1.08254 30.2473 0.444688 31.7017 0.165449 33.2434C-0.11379 34.785 -0.0265955 36.3708 0.419993 37.8726C2.18999 43.9251 5.39249 49.3851 9.68999 53.6651C13.7325 57.6876 19.4425 59.9976 25.36 59.9976H34.665C40.58 59.9976 46.29 57.6876 50.335 53.6626C54.6325 49.3851 57.835 43.9226 59.6025 37.8726C60.0492 36.3705 60.1368 34.7846 59.858 33.2425C59.5792 31.7005 58.9419 30.2456 57.9975 28.9951V28.9976ZM17.5125 9.62505L25.0125 9.23005V12.5176H17.5125V9.62505ZM17.5125 17.5176H25.0125V25.0001H17.5125V17.5176ZM54.8 36.4726C53.29 41.6426 50.45 46.4901 46.805 50.1226C43.69 53.2226 39.265 55.0001 34.6625 55.0001H25.3575C20.755 55.0001 16.33 53.2226 13.2175 50.1251C9.57249 46.4926 6.72999 41.6426 5.21999 36.4726C4.99435 35.7153 4.94963 34.9157 5.08945 34.138C5.22927 33.3603 5.54972 32.6263 6.02499 31.9951C6.97499 30.7276 8.42999 30.0001 10.015 30.0001H50.0025C51.5875 30.0001 53.0425 30.7276 53.995 31.9951C54.96 33.2851 55.255 34.9151 54.8 36.4726Z" fill="#1D1D1D"/>
</g>
<defs>
<clipPath id="clip0_901_1263">
<rect width="60" height="60" fill="white"/>
</clipPath>
</defs>
</svg>
