<svg width="60" height="60" viewBox="0 0 60 60" fill="none" xmlns="http://www.w3.org/2000/svg">
<path d="M36.875 15C37.538 15 38.1739 15.2634 38.6428 15.7322C39.1116 16.2011 39.375 16.837 39.375 17.5C39.375 18.163 39.1116 18.7989 38.6428 19.2678C38.1739 19.7366 37.538 20 36.875 20H16.875C16.212 20 15.5761 19.7366 15.1072 19.2678C14.6384 18.7989 14.375 18.163 14.375 17.5C14.375 16.837 14.6384 16.2011 15.1072 15.7322C15.5761 15.2634 16.212 15 16.875 15H36.875ZM56.1425 59.2675C55.6737 59.7362 55.0379 59.9995 54.375 59.9995C53.7121 59.9995 53.0763 59.7362 52.6075 59.2675L46.59 53.25C44.8079 54.3874 42.7391 54.9944 40.625 55C38.4 55 36.2249 54.3402 34.3748 53.104C32.5248 51.8679 31.0828 50.1109 30.2314 48.0552C29.3799 45.9995 29.1571 43.7375 29.5912 41.5552C30.0252 39.3729 31.0967 37.3684 32.67 35.7951C34.2434 34.2217 36.2479 33.1502 38.4302 32.7162C40.6125 32.2821 42.8745 32.5049 44.9302 33.3564C46.9859 34.2078 48.7429 35.6498 49.979 37.4998C51.2152 39.3499 51.875 41.525 51.875 43.75C51.8694 45.8641 51.2624 47.9329 50.125 49.715L56.1425 55.7325C56.6112 56.2013 56.8745 56.8371 56.8745 57.5C56.8745 58.1629 56.6112 58.7987 56.1425 59.2675ZM40.625 50C41.8611 50 43.0695 49.6334 44.0973 48.9467C45.1251 48.2599 45.9262 47.2838 46.3992 46.1418C46.8723 44.9997 46.9961 43.7431 46.7549 42.5307C46.5137 41.3183 45.9185 40.2047 45.0444 39.3306C44.1703 38.4565 43.0567 37.8612 41.8443 37.6201C40.6319 37.3789 39.3753 37.5027 38.2332 37.9758C37.0912 38.4488 36.1151 39.2499 35.4283 40.2777C34.7416 41.3055 34.375 42.5139 34.375 43.75C34.375 45.4076 35.0335 46.9973 36.2056 48.1694C37.3777 49.3415 38.9674 50 40.625 50ZM29.375 55H14.375C12.3859 55 10.4782 54.2098 9.0717 52.8033C7.66518 51.3968 6.875 49.4891 6.875 47.5V12.5C6.875 10.5109 7.66518 8.60322 9.0717 7.1967C10.4782 5.79018 12.3859 5 14.375 5H44.375C45.038 5 45.6739 5.26339 46.1428 5.73223C46.6116 6.20107 46.875 6.83696 46.875 7.5V27.5C46.875 28.163 47.1384 28.7989 47.6072 29.2678C48.0761 29.7366 48.712 30 49.375 30C50.038 30 50.6739 29.7366 51.1428 29.2678C51.6116 28.7989 51.875 28.163 51.875 27.5V7.5C51.875 5.51088 51.0848 3.60322 49.6783 2.1967C48.2718 0.790176 46.3641 0 44.375 0L14.375 0C11.061 0.00396964 7.88389 1.3222 5.54055 3.66555C3.1972 6.00889 1.87897 9.18601 1.875 12.5V47.5C1.87897 50.814 3.1972 53.9911 5.54055 56.3345C7.88389 58.6778 11.061 59.996 14.375 60H29.375C30.038 60 30.6739 59.7366 31.1428 59.2678C31.6116 58.7989 31.875 58.163 31.875 57.5C31.875 56.837 31.6116 56.2011 31.1428 55.7322C30.6739 55.2634 30.038 55 29.375 55Z" fill="#1D1D1D"/>
</svg>
