<svg width="60" height="60" fill="none" xmlns="http://www.w3.org/2000/svg"><g clip-path="url(#a)"><path d="M41.25 0C30.735 0 22.5 4.942 22.5 11.25v6.468a32.078 32.078 0 0 0-3.75-.218C8.235 17.5 0 22.442 0 28.75v20C0 55.057 8.235 60 18.75 60c8.54 0 15.578-3.26 17.917-7.865 1.493.218 3.018.365 4.583.365C51.765 52.5 60 47.557 60 41.25v-30C60 4.942 51.765 0 41.25 0Zm0 5C49.12 5 55 8.3 55 11.25s-5.88 6.25-13.75 6.25-13.75-3.3-13.75-6.25S33.38 5 41.25 5Zm-22.5 17.5c7.87 0 13.75 3.3 13.75 6.25S26.62 35 18.75 35 5 31.7 5 28.75s5.88-6.25 13.75-6.25ZM5 36.455C8.4 38.643 13.258 40 18.75 40c5.492 0 10.35-1.358 13.75-3.545v2.295c0 2.95-5.88 6.25-13.75 6.25S5 41.7 5 38.75v-2.295ZM18.75 55C10.88 55 5 51.7 5 48.75v-2.295C8.4 48.643 13.258 50 18.75 50c5.492 0 10.35-1.358 13.75-3.545v2.295c0 2.95-5.88 6.25-13.75 6.25Zm22.5-7.5c-1.285 0-2.53-.117-3.75-.29v-4.95c1.23.145 2.475.24 3.75.24 5.492 0 10.35-1.358 13.75-3.545v2.295c0 2.95-5.88 6.25-13.75 6.25Zm0-10c-1.285 0-2.53-.117-3.75-.29v-4.95c1.23.145 2.475.24 3.75.24 5.492 0 10.35-1.358 13.75-3.545v2.295c0 2.95-5.88 6.25-13.75 6.25Zm0-10c-1.355 0-2.665-.128-3.945-.317-.495-2.218-2.023-4.21-4.303-5.803 2.48.713 5.265 1.123 8.248 1.123 5.492 0 10.35-1.358 13.75-3.546v2.296c0 2.95-5.88 6.25-13.75 6.25V27.5Z" fill="#1D1D1D"/></g><defs><clipPath id="a"><path fill="#fff" d="M0 0h60v60H0z"/></clipPath></defs></svg>