<svg width="60" height="60" fill="none" xmlns="http://www.w3.org/2000/svg"><path d="M36.875 15a2.5 2.5 0 0 1 0 5h-20a2.5 2.5 0 0 1 0-5h20Zm19.267 44.267a2.5 2.5 0 0 1-3.535 0L46.59 53.25A11.142 11.142 0 0 1 40.625 55a11.25 11.25 0 1 1 11.25-11.25 11.142 11.142 0 0 1-1.75 5.965l6.017 6.017a2.5 2.5 0 0 1 0 3.535ZM40.626 50a6.25 6.25 0 1 0 0-12.5 6.25 6.25 0 0 0 0 12.5Zm-11.25 5h-15a7.5 7.5 0 0 1-7.5-7.5v-35a7.5 7.5 0 0 1 7.5-7.5h30a2.5 2.5 0 0 1 2.5 2.5v20a2.5 2.5 0 0 0 5 0v-20a7.5 7.5 0 0 0-7.5-7.5h-30a12.515 12.515 0 0 0-12.5 12.5v35a12.515 12.515 0 0 0 12.5 12.5h15a2.5 2.5 0 0 0 0-5Z" fill="#1D1D1D"/></svg>