<svg width="60" height="60" fill="none" xmlns="http://www.w3.org/2000/svg"><g clip-path="url(#a)"><path d="M57.998 28.998A9.902 9.902 0 0 0 50.005 25H30.012v-7.482H57.5a2.5 2.5 0 0 0 0-5H30.012V8.965l27.458-1.45a2.5 2.5 0 1 0-.262-4.995L9.864 5.02a2.5 2.5 0 0 0 .13 4.998h.135l2.385-.125v2.627H9.997a2.5 2.5 0 1 0 0 5h2.518v7.483h-2.498a9.896 9.896 0 0 0-7.99 3.995A9.992 9.992 0 0 0 .42 37.873c1.77 6.052 4.972 11.512 9.27 15.792 4.043 4.023 9.752 6.333 15.67 6.333h9.305c5.915 0 11.625-2.31 15.67-6.335 4.297-4.278 7.5-9.74 9.267-15.79a10 10 0 0 0-1.604-8.878v.003ZM17.513 9.625l7.5-.395v3.288h-7.5V9.625Zm0 7.893h7.5V25h-7.5v-7.482ZM54.8 36.473c-1.51 5.17-4.35 10.017-7.995 13.65C43.69 53.223 39.265 55 34.663 55h-9.305c-4.603 0-9.028-1.777-12.14-4.875-3.646-3.632-6.488-8.482-7.998-13.652a5.048 5.048 0 0 1 .805-4.478A4.945 4.945 0 0 1 10.015 30h39.987c1.585 0 3.04.728 3.993 1.995a5.045 5.045 0 0 1 .805 4.478Z" fill="#1D1D1D"/></g><defs><clipPath id="a"><path fill="#fff" d="M0 0h60v60H0z"/></clipPath></defs></svg>