<svg width="60" height="60" fill="none" xmlns="http://www.w3.org/2000/svg"><g clip-path="url(#a)" fill="#1D1D1D"><path d="M46.453 5.35 30.79.128a2.5 2.5 0 0 0-1.58 0L13.547 5.35A12.483 12.483 0 0 0 5 17.208V30c0 18.908 23 29.35 23.985 29.785a2.5 2.5 0 0 0 2.03 0C32 59.35 55 48.908 55 30V17.208A12.483 12.483 0 0 0 46.453 5.35ZM50 30c0 13.638-15.797 22.583-20 24.723C25.793 52.59 10 43.673 10 30V17.208a7.5 7.5 0 0 1 5.13-7.115L30 5.135l14.87 4.958A7.5 7.5 0 0 1 50 17.208V30Z"/><path d="m38.25 20.75-10.47 10.5-5.61-5.85a2.499 2.499 0 0 0-4.345 1.67 2.501 2.501 0 0 0 .742 1.795l5.765 6a4.68 4.68 0 0 0 3.363 1.5h.082a4.684 4.684 0 0 0 3.338-1.382l10.68-10.68a2.509 2.509 0 1 0-3.545-3.553Z"/></g><defs><clipPath id="a"><path fill="#fff" d="M0 0h60v60H0z"/></clipPath></defs></svg>