<svg width="60" height="60" viewBox="0 0 60 60" fill="none" xmlns="http://www.w3.org/2000/svg">
<g clip-path="url(#clip0_475_1790)">
<path d="M42.5 60H17.5C10.6075 60 5 54.3925 5 47.5V12.5C5 5.6075 10.6075 0 17.5 0H42.5C49.3925 0 55 5.6075 55 12.5V47.5C55 54.3925 49.3925 60 42.5 60ZM17.5 5C13.365 5 10 8.365 10 12.5V47.5C10 51.635 13.365 55 17.5 55H42.5C46.635 55 50 51.635 50 47.5V12.5C50 8.365 46.635 5 42.5 5H17.5ZM45 15C45 14.337 44.7366 13.7011 44.2678 13.2322C43.7989 12.7634 43.163 12.5 42.5 12.5H32.5C31.837 12.5 31.2011 12.7634 30.7322 13.2322C30.2634 13.7011 30 14.337 30 15C30 15.663 30.2634 16.2989 30.7322 16.7678C31.2011 17.2366 31.837 17.5 32.5 17.5H42.5C43.163 17.5 43.7989 17.2366 44.2678 16.7678C44.7366 16.2989 45 15.663 45 15ZM45 30C45 29.337 44.7366 28.7011 44.2678 28.2322C43.7989 27.7634 43.163 27.5 42.5 27.5H32.5C31.837 27.5 31.2011 27.7634 30.7322 28.2322C30.2634 28.7011 30 29.337 30 30C30 30.663 30.2634 31.2989 30.7322 31.7678C31.2011 32.2366 31.837 32.5 32.5 32.5H42.5C43.163 32.5 43.7989 32.2366 44.2678 31.7678C44.7366 31.2989 45 30.663 45 30ZM45 45C45 44.337 44.7366 43.7011 44.2678 43.2322C43.7989 42.7634 43.163 42.5 42.5 42.5H32.5C31.837 42.5 31.2011 42.7634 30.7322 43.2322C30.2634 43.7011 30 44.337 30 45C30 45.663 30.2634 46.2989 30.7322 46.7678C31.2011 47.2366 31.837 47.5 32.5 47.5H42.5C43.163 47.5 43.7989 47.2366 44.2678 46.7678C44.7366 46.2989 45 45.663 45 45ZM25 17.5V12.5C25 11.837 24.7366 11.2011 24.2678 10.7322C23.7989 10.2634 23.163 10 22.5 10H17.5C16.837 10 16.2011 10.2634 15.7322 10.7322C15.2634 11.2011 15 11.837 15 12.5V17.5C15 18.163 15.2634 18.7989 15.7322 19.2678C16.2011 19.7366 16.837 20 17.5 20H22.5C23.163 20 23.7989 19.7366 24.2678 19.2678C24.7366 18.7989 25 18.163 25 17.5ZM25 32.5V27.5C25 26.837 24.7366 26.2011 24.2678 25.7322C23.7989 25.2634 23.163 25 22.5 25H17.5C16.837 25 16.2011 25.2634 15.7322 25.7322C15.2634 26.2011 15 26.837 15 27.5V32.5C15 33.163 15.2634 33.7989 15.7322 34.2678C16.2011 34.7366 16.837 35 17.5 35H22.5C23.163 35 23.7989 34.7366 24.2678 34.2678C24.7366 33.7989 25 33.163 25 32.5ZM25 47.5V42.5C25 41.837 24.7366 41.2011 24.2678 40.7322C23.7989 40.2634 23.163 40 22.5 40H17.5C16.837 40 16.2011 40.2634 15.7322 40.7322C15.2634 41.2011 15 41.837 15 42.5V47.5C15 48.163 15.2634 48.7989 15.7322 49.2678C16.2011 49.7366 16.837 50 17.5 50H22.5C23.163 50 23.7989 49.7366 24.2678 49.2678C24.7366 48.7989 25 48.163 25 47.5Z" fill="#F4996B"/>
</g>
<defs>
<clipPath id="clip0_475_1790">
<rect width="60" height="60" fill="white"/>
</clipPath>
</defs>
</svg>
