<svg width="60" height="60" viewBox="0 0 60 60" fill="none" xmlns="http://www.w3.org/2000/svg">
<g clip-path="url(#clip0_475_1799)">
<path d="M50.3125 25.1562H50.034C50.37 24.0502 50.446 22.8814 50.2562 21.7411C50.0664 20.6008 49.6158 19.5197 48.9396 18.5821C48.2633 17.6445 47.3797 16.8758 46.3576 16.3358C45.3355 15.7957 44.2025 15.499 43.0469 15.4688H9.14062C-4.06102 16.3697 4.29688 36.4204 7.71414 41.8963C9.24661 44.2177 11.3361 46.1184 13.7919 47.4247C16.2477 48.7311 18.9916 49.4016 21.7731 49.375H30.412C33.1485 49.4 35.849 48.7502 38.2746 47.4829C40.7002 46.2156 42.776 44.37 44.3184 42.1094H50.3125C61.9714 41.8841 64.2601 24.7252 50.3125 25.1562ZM30.412 44.5312H21.7731C19.7973 44.5579 17.8463 44.0888 16.0986 43.1669C14.3508 42.245 12.862 40.8997 11.7684 39.254C10.4509 37.9922 3.07141 20.3125 9.14062 20.3125H43.0469C43.3801 20.3114 43.7097 20.381 44.0141 20.5167C44.3184 20.6524 44.5905 20.851 44.8124 21.0996C45.0485 21.3597 45.2269 21.6668 45.3358 22.0007C45.4447 22.3346 45.4818 22.6878 45.4445 23.0371C44.081 33.3519 41.5163 44.0735 30.412 44.5312ZM50.3125 37.2656H46.8928C47.8884 34.9213 48.662 32.4888 49.2033 30C52.1313 29.8038 55.3694 30.5231 55.1562 32.7682C55.0776 33.9952 54.5316 35.1455 53.6305 35.9821C52.7295 36.8187 51.542 37.2781 50.3125 37.2656ZM23.7324 8.20312V3.35938C23.7324 2.71705 23.9876 2.10104 24.4418 1.64685C24.896 1.19266 25.512 0.9375 26.1543 0.9375C26.7966 0.9375 27.4126 1.19266 27.8668 1.64685C28.321 2.10104 28.5762 2.71705 28.5762 3.35938V8.20312C28.5762 8.84545 28.321 9.46146 27.8668 9.91565C27.4126 10.3698 26.7966 10.625 26.1543 10.625C25.512 10.625 24.896 10.3698 24.4418 9.91565C23.9876 9.46146 23.7324 8.84545 23.7324 8.20312ZM33.4199 8.20312V3.35938C33.4199 2.71705 33.6751 2.10104 34.1293 1.64685C34.5835 1.19266 35.1995 0.9375 35.8418 0.9375C36.4841 0.9375 37.1001 1.19266 37.5543 1.64685C38.0085 2.10104 38.2637 2.71705 38.2637 3.35938V8.20312C38.2637 8.84545 38.0085 9.46146 37.5543 9.91565C37.1001 10.3698 36.4841 10.625 35.8418 10.625C35.1995 10.625 34.5835 10.3698 34.1293 9.91565C33.6751 9.46146 33.4199 8.84545 33.4199 8.20312ZM14.0449 8.20312V3.35938C14.0449 2.71705 14.3001 2.10104 14.7543 1.64685C15.2085 1.19266 15.8245 0.9375 16.4668 0.9375C17.1091 0.9375 17.7251 1.19266 18.1793 1.64685C18.6335 2.10104 18.8887 2.71705 18.8887 3.35938V8.20312C18.8887 8.84545 18.6335 9.46146 18.1793 9.91565C17.7251 10.3698 17.1091 10.625 16.4668 10.625C15.8245 10.625 15.2085 10.3698 14.7543 9.91565C14.3001 9.46146 14.0449 8.84545 14.0449 8.20312ZM50.3125 56.6406C50.3125 57.2829 50.0573 57.899 49.6031 58.3531C49.149 58.8073 48.5329 59.0625 47.8906 59.0625H4.29688C3.65455 59.0625 3.03854 58.8073 2.58435 58.3531C2.13016 57.899 1.875 57.2829 1.875 56.6406C1.875 55.9983 2.13016 55.3823 2.58435 54.9281C3.03854 54.4739 3.65455 54.2188 4.29688 54.2188H47.8906C48.5329 54.2188 49.149 54.4739 49.6031 54.9281C50.0573 55.3823 50.3125 55.9983 50.3125 56.6406Z" fill="#F4996B"/>
</g>
<defs>
<clipPath id="clip0_475_1799">
<rect width="58.125" height="58.125" fill="white" transform="translate(1.875 0.9375)"/>
</clipPath>
</defs>
</svg>
