<svg width="60" height="60" viewBox="0 0 60 60" fill="none" xmlns="http://www.w3.org/2000/svg">
<g clip-path="url(#clip0_475_1793)">
<path d="M33.3594 3.35934C33.3594 2.71702 33.6145 2.101 34.0687 1.64681C34.5229 1.19262 35.1389 0.937461 35.7812 0.937461C42.2023 0.944513 48.3583 3.49839 52.8987 8.03876C57.4391 12.5791 59.9929 18.7352 60 25.1562C60 25.7985 59.7448 26.4145 59.2906 26.8687C58.8365 27.3229 58.2204 27.5781 57.5781 27.5781C56.9358 27.5781 56.3198 27.3229 55.8656 26.8687C55.4114 26.4145 55.1562 25.7985 55.1562 25.1562C55.1505 20.0194 53.1073 15.0947 49.4751 11.4624C45.8428 7.83012 40.918 5.78698 35.7812 5.78121C35.1389 5.78121 34.5229 5.52605 34.0687 5.07186C33.6145 4.61767 33.3594 4.00166 33.3594 3.35934ZM35.7812 15.4687C38.3505 15.4687 40.8146 16.4894 42.6313 18.3061C44.4481 20.1229 45.4687 22.5869 45.4687 25.1562C45.4687 25.7985 45.7239 26.4145 46.1781 26.8687C46.6323 27.3229 47.2483 27.5781 47.8906 27.5781C48.5329 27.5781 49.149 27.3229 49.6031 26.8687C50.0573 26.4145 50.3125 25.7985 50.3125 25.1562C50.3086 21.3035 48.7764 17.6096 46.0521 14.8853C43.3278 12.161 39.634 10.6288 35.7812 10.625C35.1389 10.625 34.5229 10.8801 34.0687 11.3343C33.6145 11.7885 33.3594 12.4045 33.3594 13.0468C33.3594 13.6892 33.6145 14.3052 34.0687 14.7594C34.5229 15.2135 35.1389 15.4687 35.7812 15.4687ZM57.8034 41.4772C59.2069 42.8846 59.995 44.7911 59.995 46.7787C59.995 48.7663 59.2069 50.6728 57.8034 52.0802L55.5994 54.6207C35.7643 73.6107 -12.5037 25.3548 6.1932 5.45668L8.97836 3.03481C10.3873 1.67051 12.2768 0.915783 14.238 0.933913C16.1991 0.952043 18.0743 1.74157 19.4578 3.13168C19.5329 3.20676 24.0206 9.03621 24.0206 9.03621C25.3522 10.4352 26.0935 12.2935 26.0904 14.2248C26.0872 16.1562 25.3399 18.0121 24.0037 19.4067L21.1991 22.9329C22.7512 26.7041 25.0331 30.1313 27.9138 33.0178C30.7945 35.9044 34.2172 38.1932 37.9852 39.7529L41.5332 36.9314C42.928 35.5962 44.7835 34.8498 46.7143 34.847C48.6451 34.8443 50.5027 35.5856 51.9012 36.9168C51.9012 36.9168 57.7283 41.4021 57.8034 41.4772ZM54.4709 44.9986C54.4709 44.9986 48.6753 40.54 48.6002 40.4649C48.1013 39.9702 47.4271 39.6926 46.7245 39.6926C46.0219 39.6926 45.3477 39.9702 44.8487 40.4649C44.7834 40.5327 39.8984 44.4246 39.8984 44.4246C39.5692 44.6867 39.1775 44.8584 38.7617 44.923C38.346 44.9875 37.9206 44.9426 37.5274 44.7928C32.646 42.9753 28.2122 40.13 24.5264 36.4496C20.8405 32.7692 17.9887 28.3396 16.1641 23.4609C16.0023 23.0624 15.9495 22.628 16.0112 22.2023C16.073 21.7767 16.2469 21.3752 16.5152 21.039C16.5152 21.039 20.4072 16.1517 20.4726 16.0887C20.9673 15.5898 21.2449 14.9156 21.2449 14.213C21.2449 13.5103 20.9673 12.8362 20.4726 12.3372C20.3975 12.2646 15.9388 6.46418 15.9388 6.46418C15.4324 6.0101 14.7715 5.76691 14.0915 5.78447C13.4116 5.80203 12.7641 6.07901 12.2818 6.55863L9.49664 8.98051C-4.16758 25.4105 37.6606 64.9186 52.0587 51.3125L54.265 48.7695C54.782 48.2906 55.0926 47.6294 55.131 46.9257C55.1694 46.222 54.9327 45.531 54.4709 44.9986Z" fill="#F4996B"/>
</g>
<defs>
<clipPath id="clip0_475_1793">
<rect width="58.125" height="58.125" fill="white" transform="translate(1.875 0.9375)"/>
</clipPath>
</defs>
</svg>
