<svg width="60" height="60" viewBox="0 0 60 60" fill="none" xmlns="http://www.w3.org/2000/svg">
<g clip-path="url(#clip0_475_1796)">
<path d="M46.4062 0.9375H13.5938C10.4869 0.941222 7.50834 2.17707 5.31145 4.37395C3.11457 6.57084 1.87872 9.54939 1.875 12.6562L1.875 45.4688C1.87872 48.5756 3.11457 51.5542 5.31145 53.751C7.50834 55.9479 10.4869 57.1838 13.5938 57.1875H46.4062C49.5131 57.1838 52.4917 55.9479 54.6885 53.751C56.8854 51.5542 58.1213 48.5756 58.125 45.4688V12.6562C58.1213 9.54939 56.8854 6.57084 54.6885 4.37395C52.4917 2.17707 49.5131 0.941222 46.4062 0.9375ZM53.4375 45.4688C53.4375 47.3336 52.6967 49.122 51.3781 50.4406C50.0595 51.7592 48.2711 52.5 46.4062 52.5H13.5938C11.7289 52.5 9.94052 51.7592 8.62191 50.4406C7.30329 49.122 6.5625 47.3336 6.5625 45.4688V12.6562C6.5625 10.7914 7.30329 9.00302 8.62191 7.68441C9.94052 6.36579 11.7289 5.625 13.5938 5.625H46.4062C48.2711 5.625 50.0595 6.36579 51.3781 7.68441C52.6967 9.00302 53.4375 10.7914 53.4375 12.6562V45.4688Z" fill="#F4996B"/>
<path d="M23.7492 38.2475L14.5641 29.0624C14.1245 28.623 13.5285 28.3762 12.907 28.3762C12.2856 28.3762 11.6895 28.623 11.25 29.0624C10.8106 29.5019 10.5638 30.0979 10.5638 30.7194C10.5638 31.3409 10.8106 31.9369 11.25 32.3765L20.4352 41.5616C20.8705 41.9971 21.3873 42.3425 21.9561 42.5782C22.525 42.8139 23.1347 42.9352 23.7504 42.9352C24.3661 42.9352 24.9758 42.8139 25.5447 42.5782C26.1135 42.3425 26.6303 41.9971 27.0656 41.5616L48.75 19.8772C49.1894 19.4377 49.4362 18.8417 49.4362 18.2202C49.4362 17.5987 49.1894 17.0027 48.75 16.5632C48.3105 16.1238 47.7145 15.877 47.093 15.877C46.4715 15.877 45.8755 16.1238 45.4359 16.5632L23.7492 38.2475Z" fill="#F4996B"/>
</g>
<defs>
<clipPath id="clip0_475_1796">
<rect width="56.25" height="56.25" fill="white" transform="translate(1.875 0.9375)"/>
</clipPath>
</defs>
</svg>
